<?xml version="1.0" encoding="UTF-8" standalone="no"?>
<!DOCTYPE svg PUBLIC "-//W3C//DTD SVG 1.1//EN"
 "http://www.w3.org/Graphics/SVG/1.1/DTD/svg11.dtd">
<!-- Generated by graphviz version 12.1.2 (20240928.0832)
 -->
<!-- Title: public.user_roles Pages: 1 -->
<svg width="528pt" height="571pt"
 viewBox="0.00 0.00 527.58 571.20" xmlns="http://www.w3.org/2000/svg" xmlns:xlink="http://www.w3.org/1999/xlink">
<g id="graph0" class="graph" transform="scale(1 1) rotate(0) translate(4 567.2)">
<title>public.user_roles</title>
<polygon fill="white" stroke="none" points="-4,4 -4,-567.2 523.58,-567.2 523.58,4 -4,4"/>
<!-- public.user_roles -->
<g id="node1" class="node">
<title>public.user_roles</title>
<polygon fill="#efefef" stroke="none" points="211.42,-481.4 211.42,-517 473.38,-517 473.38,-481.4 211.42,-481.4"/>
<polygon fill="none" stroke="black" points="211.42,-481.4 211.42,-517 473.38,-517 473.38,-481.4 211.42,-481.4"/>
<text text-anchor="start" x="218.42" y="-494.8" font-family="Arial Bold" font-size="18.00">public.user_roles</text>
<text text-anchor="start" x="341.89" y="-494.8" font-family="Arial" font-size="14.00">    </text>
<text text-anchor="start" x="373.01" y="-494.8" font-family="Arial" font-size="14.00" fill="#666666">[BASE TABLE]</text>
<polygon fill="none" stroke="black" points="211.42,-450.6 211.42,-481.4 473.38,-481.4 473.38,-450.6 211.42,-450.6"/>
<text text-anchor="start" x="218.42" y="-462.8" font-family="Arial" font-size="14.00">user_id </text>
<text text-anchor="start" x="268.23" y="-462.8" font-family="Arial" font-size="14.00" fill="#666666">[uuid]</text>
<polygon fill="none" stroke="black" points="211.42,-419.8 211.42,-450.6 473.38,-450.6 473.38,-419.8 211.42,-419.8"/>
<text text-anchor="start" x="218.42" y="-432" font-family="Arial" font-size="14.00">role_id </text>
<text text-anchor="start" x="264.34" y="-432" font-family="Arial" font-size="14.00" fill="#666666">[bigint]</text>
<polygon fill="none" stroke="black" stroke-width="3" points="209.92,-418.3 209.92,-518.5 474.88,-518.5 474.88,-418.3 209.92,-418.3"/>
</g>
<!-- public.roles -->
<g id="node2" class="node">
<title>public.roles</title>
<polygon fill="#efefef" stroke="none" points="215.56,-258.8 215.56,-294.4 469.24,-294.4 469.24,-258.8 215.56,-258.8"/>
<polygon fill="none" stroke="black" points="215.56,-258.8 215.56,-294.4 469.24,-294.4 469.24,-258.8 215.56,-258.8"/>
<text text-anchor="start" x="237.92" y="-272.2" font-family="Arial Bold" font-size="18.00">public.roles</text>
<text text-anchor="start" x="322.4" y="-272.2" font-family="Arial" font-size="14.00">    </text>
<text text-anchor="start" x="353.52" y="-272.2" font-family="Arial" font-size="14.00" fill="#666666">[BASE TABLE]</text>
<polygon fill="none" stroke="black" points="215.56,-228 215.56,-258.8 469.24,-258.8 469.24,-228 215.56,-228"/>
<text text-anchor="start" x="222.56" y="-240.2" font-family="Arial" font-size="14.00">id </text>
<text text-anchor="start" x="237.35" y="-240.2" font-family="Arial" font-size="14.00" fill="#666666">[bigint]</text>
<polygon fill="none" stroke="black" points="215.56,-197.2 215.56,-228 469.24,-228 469.24,-197.2 215.56,-197.2"/>
<text text-anchor="start" x="222.56" y="-209.4" font-family="Arial" font-size="14.00">name </text>
<text text-anchor="start" x="261.47" y="-209.4" font-family="Arial" font-size="14.00" fill="#666666">[varchar(50)]</text>
<polygon fill="none" stroke="black" points="215.56,-166.4 215.56,-197.2 469.24,-197.2 469.24,-166.4 215.56,-166.4"/>
<text text-anchor="start" x="222.56" y="-178.6" font-family="Arial" font-size="14.00">description </text>
<text text-anchor="start" x="294.16" y="-178.6" font-family="Arial" font-size="14.00" fill="#666666">[varchar(200)]</text>
<polygon fill="none" stroke="black" points="215.56,-135.6 215.56,-166.4 469.24,-166.4 469.24,-135.6 215.56,-135.6"/>
<text text-anchor="start" x="222.56" y="-147.8" font-family="Arial" font-size="14.00">is_active </text>
<text text-anchor="start" x="280.92" y="-147.8" font-family="Arial" font-size="14.00" fill="#666666">[boolean]</text>
<polygon fill="none" stroke="black" points="215.56,-104.8 215.56,-135.6 469.24,-135.6 469.24,-104.8 215.56,-104.8"/>
<text text-anchor="start" x="222.56" y="-117" font-family="Arial" font-size="14.00">created_at </text>
<text text-anchor="start" x="292.61" y="-117" font-family="Arial" font-size="14.00" fill="#666666">[timestamp with time zone]</text>
<polygon fill="none" stroke="black" points="215.56,-74 215.56,-104.8 469.24,-104.8 469.24,-74 215.56,-74"/>
<text text-anchor="start" x="222.56" y="-86.2" font-family="Arial" font-size="14.00">updated_at </text>
<text text-anchor="start" x="296.52" y="-86.2" font-family="Arial" font-size="14.00" fill="#666666">[timestamp with time zone]</text>
<polygon fill="none" stroke="black" points="215.56,-43.2 215.56,-74 469.24,-74 469.24,-43.2 215.56,-43.2"/>
<text text-anchor="start" x="222.56" y="-55.4" font-family="Arial" font-size="14.00">deleted_at </text>
<text text-anchor="start" x="291.84" y="-55.4" font-family="Arial" font-size="14.00" fill="#666666">[timestamp with time zone]</text>
</g>
<!-- public.user_roles&#45;&gt;public.roles -->
<g id="edge1" class="edge">
<title>public.user_roles:role_id&#45;&gt;public.roles:id</title>
<path fill="none" stroke="black" d="M343.28,-408.46C352.9,-356.55 438.64,-392.83 469.24,-337.6 489.54,-300.98 512.11,-243.4 470.24,-243.4"/>
<polygon fill="black" stroke="black" points="343.28,-408.5 337.95,-418.09 342.83,-413.82 342.46,-418.13 342.46,-418.13 342.46,-418.13 342.83,-413.82 346.92,-418.85 343.28,-408.5"/>
<text text-anchor="start" x="7" y="-428.8" font-family="Arial" font-size="10.00">FOREIGN KEY (role_id) REFERENCES roles(id) ON DELETE CASCADE</text>
</g>
</g>
</svg>
