<?xml version="1.0" encoding="UTF-8" standalone="no"?>
<!DOCTYPE svg PUBLIC "-//W3C//DTD SVG 1.1//EN"
 "http://www.w3.org/Graphics/SVG/1.1/DTD/svg11.dtd">
<!-- Generated by graphviz version 12.1.2 (20240928.0832)
 -->
<!-- Title: public.device_attestations Pages: 1 -->
<svg width="728pt" height="1280pt"
 viewBox="0.00 0.00 728.09 1279.60" xmlns="http://www.w3.org/2000/svg" xmlns:xlink="http://www.w3.org/1999/xlink">
<g id="graph0" class="graph" transform="scale(1 1) rotate(0) translate(4 1275.6)">
<title>public.device_attestations</title>
<polygon fill="white" stroke="none" points="-4,4 -4,-1275.6 724.09,-1275.6 724.09,4 -4,4"/>
<!-- public.device_attestations -->
<g id="node1" class="node">
<title>public.device_attestations</title>
<polygon fill="#efefef" stroke="none" points="46.2,-1189.8 46.2,-1225.4 371.13,-1225.4 371.13,-1189.8 46.2,-1189.8"/>
<polygon fill="none" stroke="black" points="46.2,-1189.8 46.2,-1225.4 371.13,-1225.4 371.13,-1189.8 46.2,-1189.8"/>
<text text-anchor="start" x="53.2" y="-1203.2" font-family="Arial Bold" font-size="18.00">public.device_attestations</text>
<text text-anchor="start" x="239.64" y="-1203.2" font-family="Arial" font-size="14.00">    </text>
<text text-anchor="start" x="270.76" y="-1203.2" font-family="Arial" font-size="14.00" fill="#666666">[BASE TABLE]</text>
<polygon fill="none" stroke="black" points="46.2,-1159 46.2,-1189.8 371.13,-1189.8 371.13,-1159 46.2,-1159"/>
<text text-anchor="start" x="53.2" y="-1171.2" font-family="Arial" font-size="14.00">id </text>
<text text-anchor="start" x="67.99" y="-1171.2" font-family="Arial" font-size="14.00" fill="#666666">[uuid]</text>
<polygon fill="none" stroke="black" points="46.2,-1128.2 46.2,-1159 371.13,-1159 371.13,-1128.2 46.2,-1128.2"/>
<text text-anchor="start" x="53.2" y="-1140.4" font-family="Arial" font-size="14.00">user_id </text>
<text text-anchor="start" x="103.01" y="-1140.4" font-family="Arial" font-size="14.00" fill="#666666">[uuid]</text>
<polygon fill="none" stroke="black" points="46.2,-1097.4 46.2,-1128.2 371.13,-1128.2 371.13,-1097.4 46.2,-1097.4"/>
<text text-anchor="start" x="53.2" y="-1109.6" font-family="Arial" font-size="14.00">device_id </text>
<text text-anchor="start" x="116.24" y="-1109.6" font-family="Arial" font-size="14.00" fill="#666666">[varchar(255)]</text>
<polygon fill="none" stroke="black" points="46.2,-1066.6 46.2,-1097.4 371.13,-1097.4 371.13,-1066.6 46.2,-1066.6"/>
<text text-anchor="start" x="53.2" y="-1078.8" font-family="Arial" font-size="14.00">device_name </text>
<text text-anchor="start" x="140.37" y="-1078.8" font-family="Arial" font-size="14.00" fill="#666666">[varchar(100)]</text>
<polygon fill="none" stroke="black" points="46.2,-1035.8 46.2,-1066.6 371.13,-1066.6 371.13,-1035.8 46.2,-1035.8"/>
<text text-anchor="start" x="53.2" y="-1048" font-family="Arial" font-size="14.00">platform </text>
<text text-anchor="start" x="107.66" y="-1048" font-family="Arial" font-size="14.00" fill="#666666">[varchar(50)]</text>
<polygon fill="none" stroke="black" points="46.2,-1005 46.2,-1035.8 371.13,-1035.8 371.13,-1005 46.2,-1005"/>
<text text-anchor="start" x="53.2" y="-1017.2" font-family="Arial" font-size="14.00">spiffe_id </text>
<text text-anchor="start" x="109.23" y="-1017.2" font-family="Arial" font-size="14.00" fill="#666666">[varchar(255)]</text>
<polygon fill="none" stroke="black" points="46.2,-974.2 46.2,-1005 371.13,-1005 371.13,-974.2 46.2,-974.2"/>
<text text-anchor="start" x="53.2" y="-986.4" font-family="Arial" font-size="14.00">workload_selector </text>
<text text-anchor="start" x="169.92" y="-986.4" font-family="Arial" font-size="14.00" fill="#666666">[varchar(255)]</text>
<polygon fill="none" stroke="black" points="46.2,-943.4 46.2,-974.2 371.13,-974.2 371.13,-943.4 46.2,-943.4"/>
<text text-anchor="start" x="53.2" y="-955.6" font-family="Arial" font-size="14.00">attestation_data </text>
<text text-anchor="start" x="156.72" y="-955.6" font-family="Arial" font-size="14.00" fill="#666666">[jsonb]</text>
<polygon fill="none" stroke="black" points="46.2,-912.6 46.2,-943.4 371.13,-943.4 371.13,-912.6 46.2,-912.6"/>
<text text-anchor="start" x="53.2" y="-924.8" font-family="Arial" font-size="14.00">status </text>
<text text-anchor="start" x="94.44" y="-924.8" font-family="Arial" font-size="14.00" fill="#666666">[varchar(20)]</text>
<polygon fill="none" stroke="black" points="46.2,-881.8 46.2,-912.6 371.13,-912.6 371.13,-881.8 46.2,-881.8"/>
<text text-anchor="start" x="53.2" y="-894" font-family="Arial" font-size="14.00">trust_level </text>
<text text-anchor="start" x="120.9" y="-894" font-family="Arial" font-size="14.00" fill="#666666">[integer]</text>
<polygon fill="none" stroke="black" points="46.2,-851 46.2,-881.8 371.13,-881.8 371.13,-851 46.2,-851"/>
<text text-anchor="start" x="53.2" y="-863.2" font-family="Arial" font-size="14.00">is_verified </text>
<text text-anchor="start" x="120.12" y="-863.2" font-family="Arial" font-size="14.00" fill="#666666">[boolean]</text>
<polygon fill="none" stroke="black" points="46.2,-820.2 46.2,-851 371.13,-851 371.13,-820.2 46.2,-820.2"/>
<text text-anchor="start" x="53.2" y="-832.4" font-family="Arial" font-size="14.00">verified_at </text>
<text text-anchor="start" x="121.68" y="-832.4" font-family="Arial" font-size="14.00" fill="#666666">[timestamp with time zone]</text>
<polygon fill="none" stroke="black" points="46.2,-789.4 46.2,-820.2 371.13,-820.2 371.13,-789.4 46.2,-789.4"/>
<text text-anchor="start" x="53.2" y="-801.6" font-family="Arial" font-size="14.00">expires_at </text>
<text text-anchor="start" x="121.68" y="-801.6" font-family="Arial" font-size="14.00" fill="#666666">[timestamp with time zone]</text>
<polygon fill="none" stroke="black" points="46.2,-758.6 46.2,-789.4 371.13,-789.4 371.13,-758.6 46.2,-758.6"/>
<text text-anchor="start" x="53.2" y="-770.8" font-family="Arial" font-size="14.00">created_at </text>
<text text-anchor="start" x="123.25" y="-770.8" font-family="Arial" font-size="14.00" fill="#666666">[timestamp with time zone]</text>
<polygon fill="none" stroke="black" points="46.2,-727.8 46.2,-758.6 371.13,-758.6 371.13,-727.8 46.2,-727.8"/>
<text text-anchor="start" x="53.2" y="-740" font-family="Arial" font-size="14.00">updated_at </text>
<text text-anchor="start" x="127.16" y="-740" font-family="Arial" font-size="14.00" fill="#666666">[timestamp with time zone]</text>
<polygon fill="none" stroke="black" stroke-width="3" points="44.7,-726.3 44.7,-1226.9 372.63,-1226.9 372.63,-726.3 44.7,-726.3"/>
</g>
<!-- public.users -->
<g id="node2" class="node">
<title>public.users</title>
<polygon fill="#efefef" stroke="none" points="51.48,-566.8 51.48,-602.4 365.85,-602.4 365.85,-566.8 51.48,-566.8"/>
<polygon fill="none" stroke="black" points="51.48,-566.8 51.48,-602.4 365.85,-602.4 365.85,-566.8 51.48,-566.8"/>
<text text-anchor="start" x="103.18" y="-580.2" font-family="Arial Bold" font-size="18.00">public.users</text>
<text text-anchor="start" x="189.66" y="-580.2" font-family="Arial" font-size="14.00">    </text>
<text text-anchor="start" x="220.78" y="-580.2" font-family="Arial" font-size="14.00" fill="#666666">[BASE TABLE]</text>
<polygon fill="none" stroke="black" points="51.48,-536 51.48,-566.8 365.85,-566.8 365.85,-536 51.48,-536"/>
<text text-anchor="start" x="58.48" y="-548.2" font-family="Arial" font-size="14.00">id </text>
<text text-anchor="start" x="73.27" y="-548.2" font-family="Arial" font-size="14.00" fill="#666666">[uuid]</text>
<polygon fill="none" stroke="black" points="51.48,-505.2 51.48,-536 365.85,-536 365.85,-505.2 51.48,-505.2"/>
<text text-anchor="start" x="58.48" y="-517.4" font-family="Arial" font-size="14.00">username </text>
<text text-anchor="start" x="124.62" y="-517.4" font-family="Arial" font-size="14.00" fill="#666666">[varchar(50)]</text>
<polygon fill="none" stroke="black" points="51.48,-474.4 51.48,-505.2 365.85,-505.2 365.85,-474.4 51.48,-474.4"/>
<text text-anchor="start" x="58.48" y="-486.6" font-family="Arial" font-size="14.00">email </text>
<text text-anchor="start" x="95.82" y="-486.6" font-family="Arial" font-size="14.00" fill="#666666">[varchar(100)]</text>
<polygon fill="none" stroke="black" points="51.48,-443.6 51.48,-474.4 365.85,-474.4 365.85,-443.6 51.48,-443.6"/>
<text text-anchor="start" x="58.48" y="-455.8" font-family="Arial" font-size="14.00">password_hash </text>
<text text-anchor="start" x="160.43" y="-455.8" font-family="Arial" font-size="14.00" fill="#666666">[varchar(255)]</text>
<polygon fill="none" stroke="black" points="51.48,-412.8 51.48,-443.6 365.85,-443.6 365.85,-412.8 51.48,-412.8"/>
<text text-anchor="start" x="58.48" y="-425" font-family="Arial" font-size="14.00">first_name </text>
<text text-anchor="start" x="127.73" y="-425" font-family="Arial" font-size="14.00" fill="#666666">[varchar(50)]</text>
<polygon fill="none" stroke="black" points="51.48,-382 51.48,-412.8 365.85,-412.8 365.85,-382 51.48,-382"/>
<text text-anchor="start" x="58.48" y="-394.2" font-family="Arial" font-size="14.00">last_name </text>
<text text-anchor="start" x="126.96" y="-394.2" font-family="Arial" font-size="14.00" fill="#666666">[varchar(50)]</text>
<polygon fill="none" stroke="black" points="51.48,-351.2 51.48,-382 365.85,-382 365.85,-351.2 51.48,-351.2"/>
<text text-anchor="start" x="58.48" y="-363.4" font-family="Arial" font-size="14.00">is_active </text>
<text text-anchor="start" x="116.84" y="-363.4" font-family="Arial" font-size="14.00" fill="#666666">[boolean]</text>
<polygon fill="none" stroke="black" points="51.48,-320.4 51.48,-351.2 365.85,-351.2 365.85,-320.4 51.48,-320.4"/>
<text text-anchor="start" x="58.48" y="-332.6" font-family="Arial" font-size="14.00">is_admin </text>
<text text-anchor="start" x="118.4" y="-332.6" font-family="Arial" font-size="14.00" fill="#666666">[boolean]</text>
<polygon fill="none" stroke="black" points="51.48,-289.6 51.48,-320.4 365.85,-320.4 365.85,-289.6 51.48,-289.6"/>
<text text-anchor="start" x="58.48" y="-301.8" font-family="Arial" font-size="14.00">failed_login_attempts </text>
<text text-anchor="start" x="194.68" y="-301.8" font-family="Arial" font-size="14.00" fill="#666666">[integer]</text>
<polygon fill="none" stroke="black" points="51.48,-258.8 51.48,-289.6 365.85,-289.6 365.85,-258.8 51.48,-258.8"/>
<text text-anchor="start" x="58.48" y="-271" font-family="Arial" font-size="14.00">last_failed_login_at </text>
<text text-anchor="start" x="182.24" y="-271" font-family="Arial" font-size="14.00" fill="#666666">[timestamp with time zone]</text>
<polygon fill="none" stroke="black" points="51.48,-228 51.48,-258.8 365.85,-258.8 365.85,-228 51.48,-228"/>
<text text-anchor="start" x="58.48" y="-240.2" font-family="Arial" font-size="14.00">account_locked_at </text>
<text text-anchor="start" x="179.12" y="-240.2" font-family="Arial" font-size="14.00" fill="#666666">[timestamp with time zone]</text>
<polygon fill="none" stroke="black" points="51.48,-197.2 51.48,-228 365.85,-228 365.85,-197.2 51.48,-197.2"/>
<text text-anchor="start" x="58.48" y="-209.4" font-family="Arial" font-size="14.00">account_locked_until </text>
<text text-anchor="start" x="193.13" y="-209.4" font-family="Arial" font-size="14.00" fill="#666666">[timestamp with time zone]</text>
<polygon fill="none" stroke="black" points="51.48,-166.4 51.48,-197.2 365.85,-197.2 365.85,-166.4 51.48,-166.4"/>
<text text-anchor="start" x="58.48" y="-178.6" font-family="Arial" font-size="14.00">last_login_at </text>
<text text-anchor="start" x="140.98" y="-178.6" font-family="Arial" font-size="14.00" fill="#666666">[timestamp with time zone]</text>
<polygon fill="none" stroke="black" points="51.48,-135.6 51.48,-166.4 365.85,-166.4 365.85,-135.6 51.48,-135.6"/>
<text text-anchor="start" x="58.48" y="-147.8" font-family="Arial" font-size="14.00">last_login_ip </text>
<text text-anchor="start" x="140.2" y="-147.8" font-family="Arial" font-size="14.00" fill="#666666">[varchar(45)]</text>
<polygon fill="none" stroke="black" points="51.48,-104.8 51.48,-135.6 365.85,-135.6 365.85,-104.8 51.48,-104.8"/>
<text text-anchor="start" x="58.48" y="-117" font-family="Arial" font-size="14.00">created_at </text>
<text text-anchor="start" x="128.53" y="-117" font-family="Arial" font-size="14.00" fill="#666666">[timestamp with time zone]</text>
<polygon fill="none" stroke="black" points="51.48,-74 51.48,-104.8 365.85,-104.8 365.85,-74 51.48,-74"/>
<text text-anchor="start" x="58.48" y="-86.2" font-family="Arial" font-size="14.00">updated_at </text>
<text text-anchor="start" x="132.44" y="-86.2" font-family="Arial" font-size="14.00" fill="#666666">[timestamp with time zone]</text>
<polygon fill="none" stroke="black" points="51.48,-43.2 51.48,-74 365.85,-74 365.85,-43.2 51.48,-43.2"/>
<text text-anchor="start" x="58.48" y="-55.4" font-family="Arial" font-size="14.00">deleted_at </text>
<text text-anchor="start" x="127.76" y="-55.4" font-family="Arial" font-size="14.00" fill="#666666">[timestamp with time zone]</text>
</g>
<!-- public.device_attestations&#45;&gt;public.users -->
<g id="edge1" class="edge">
<title>public.device_attestations:user_id&#45;&gt;public.users:id</title>
<path fill="none" stroke="black" d="M381.26,-1139.5C437.27,-1087.18 429.44,-551.4 366.85,-551.4"/>
<polygon fill="black" stroke="black" points="381.56,-1139.37 370.59,-1139.36 376.69,-1141.55 372.74,-1143.33 372.74,-1143.33 372.74,-1143.33 376.69,-1141.55 374.28,-1147.57 381.56,-1139.37"/>
<text text-anchor="start" x="379.13" y="-1153.6" font-family="Arial" font-size="10.00">FOREIGN KEY (user_id) REFERENCES users(id) ON DELETE CASCADE</text>
</g>
</g>
</svg>
