<?xml version="1.0" encoding="UTF-8" standalone="no"?>
<!DOCTYPE svg PUBLIC "-//W3C//DTD SVG 1.1//EN"
 "http://www.w3.org/Graphics/SVG/1.1/DTD/svg11.dtd">
<!-- Generated by graphviz version 12.1.2 (20240928.0832)
 -->
<!-- Title: public.role_permissions Pages: 1 -->
<svg width="1069pt" height="633pt"
 viewBox="0.00 0.00 1069.12 632.80" xmlns="http://www.w3.org/2000/svg" xmlns:xlink="http://www.w3.org/1999/xlink">
<g id="graph0" class="graph" transform="scale(1 1) rotate(0) translate(4 628.8)">
<title>public.role_permissions</title>
<polygon fill="white" stroke="none" points="-4,4 -4,-628.8 1065.12,-628.8 1065.12,4 -4,4"/>
<!-- public.role_permissions -->
<g id="node1" class="node">
<title>public.role_permissions</title>
<polygon fill="#efefef" stroke="none" points="343.4,-543 343.4,-578.6 654.37,-578.6 654.37,-543 343.4,-543"/>
<polygon fill="none" stroke="black" points="343.4,-543 343.4,-578.6 654.37,-578.6 654.37,-543 343.4,-543"/>
<text text-anchor="start" x="350.4" y="-556.4" font-family="Arial Bold" font-size="18.00">public.role_permissions</text>
<text text-anchor="start" x="522.88" y="-556.4" font-family="Arial" font-size="14.00">    </text>
<text text-anchor="start" x="554" y="-556.4" font-family="Arial" font-size="14.00" fill="#666666">[BASE TABLE]</text>
<polygon fill="none" stroke="black" points="343.4,-512.2 343.4,-543 654.37,-543 654.37,-512.2 343.4,-512.2"/>
<text text-anchor="start" x="350.4" y="-524.4" font-family="Arial" font-size="14.00">role_id </text>
<text text-anchor="start" x="396.32" y="-524.4" font-family="Arial" font-size="14.00" fill="#666666">[bigint]</text>
<polygon fill="none" stroke="black" points="343.4,-481.4 343.4,-512.2 654.37,-512.2 654.37,-481.4 343.4,-481.4"/>
<text text-anchor="start" x="350.4" y="-493.6" font-family="Arial" font-size="14.00">permission_id </text>
<text text-anchor="start" x="440.67" y="-493.6" font-family="Arial" font-size="14.00" fill="#666666">[bigint]</text>
<polygon fill="none" stroke="black" stroke-width="3" points="341.9,-479.9 341.9,-580.1 655.87,-580.1 655.87,-479.9 341.9,-479.9"/>
</g>
<!-- public.roles -->
<g id="node2" class="node">
<title>public.roles</title>
<polygon fill="#efefef" stroke="none" points="188.05,-289.6 188.05,-325.2 441.73,-325.2 441.73,-289.6 188.05,-289.6"/>
<polygon fill="none" stroke="black" points="188.05,-289.6 188.05,-325.2 441.73,-325.2 441.73,-289.6 188.05,-289.6"/>
<text text-anchor="start" x="210.4" y="-303" font-family="Arial Bold" font-size="18.00">public.roles</text>
<text text-anchor="start" x="294.88" y="-303" font-family="Arial" font-size="14.00">    </text>
<text text-anchor="start" x="326" y="-303" font-family="Arial" font-size="14.00" fill="#666666">[BASE TABLE]</text>
<polygon fill="none" stroke="black" points="188.05,-258.8 188.05,-289.6 441.73,-289.6 441.73,-258.8 188.05,-258.8"/>
<text text-anchor="start" x="195.05" y="-271" font-family="Arial" font-size="14.00">id </text>
<text text-anchor="start" x="209.83" y="-271" font-family="Arial" font-size="14.00" fill="#666666">[bigint]</text>
<polygon fill="none" stroke="black" points="188.05,-228 188.05,-258.8 441.73,-258.8 441.73,-228 188.05,-228"/>
<text text-anchor="start" x="195.05" y="-240.2" font-family="Arial" font-size="14.00">name </text>
<text text-anchor="start" x="233.96" y="-240.2" font-family="Arial" font-size="14.00" fill="#666666">[varchar(50)]</text>
<polygon fill="none" stroke="black" points="188.05,-197.2 188.05,-228 441.73,-228 441.73,-197.2 188.05,-197.2"/>
<text text-anchor="start" x="195.05" y="-209.4" font-family="Arial" font-size="14.00">description </text>
<text text-anchor="start" x="266.64" y="-209.4" font-family="Arial" font-size="14.00" fill="#666666">[varchar(200)]</text>
<polygon fill="none" stroke="black" points="188.05,-166.4 188.05,-197.2 441.73,-197.2 441.73,-166.4 188.05,-166.4"/>
<text text-anchor="start" x="195.05" y="-178.6" font-family="Arial" font-size="14.00">is_active </text>
<text text-anchor="start" x="253.4" y="-178.6" font-family="Arial" font-size="14.00" fill="#666666">[boolean]</text>
<polygon fill="none" stroke="black" points="188.05,-135.6 188.05,-166.4 441.73,-166.4 441.73,-135.6 188.05,-135.6"/>
<text text-anchor="start" x="195.05" y="-147.8" font-family="Arial" font-size="14.00">created_at </text>
<text text-anchor="start" x="265.09" y="-147.8" font-family="Arial" font-size="14.00" fill="#666666">[timestamp with time zone]</text>
<polygon fill="none" stroke="black" points="188.05,-104.8 188.05,-135.6 441.73,-135.6 441.73,-104.8 188.05,-104.8"/>
<text text-anchor="start" x="195.05" y="-117" font-family="Arial" font-size="14.00">updated_at </text>
<text text-anchor="start" x="269" y="-117" font-family="Arial" font-size="14.00" fill="#666666">[timestamp with time zone]</text>
<polygon fill="none" stroke="black" points="188.05,-74 188.05,-104.8 441.73,-104.8 441.73,-74 188.05,-74"/>
<text text-anchor="start" x="195.05" y="-86.2" font-family="Arial" font-size="14.00">deleted_at </text>
<text text-anchor="start" x="264.33" y="-86.2" font-family="Arial" font-size="14.00" fill="#666666">[timestamp with time zone]</text>
</g>
<!-- public.role_permissions&#45;&gt;public.roles -->
<g id="edge1" class="edge">
<title>public.role_permissions:role_id&#45;&gt;public.roles:id</title>
<path fill="none" stroke="black" d="M332.13,-526.06C305.73,-516.81 325.88,-467.86 343.4,-435.2 368.38,-388.65 416.76,-414.96 441.73,-368.4 461.52,-331.5 484.6,-274.2 442.73,-274.2"/>
<polygon fill="black" stroke="black" points="332.18,-526.07 341.41,-532 337.46,-526.86 341.74,-527.5 341.74,-527.5 341.74,-527.5 337.46,-526.86 342.74,-523.1 332.18,-526.07"/>
<text text-anchor="start" x="7" y="-537.6" font-family="Arial" font-size="10.00">FOREIGN KEY (role_id) REFERENCES roles(id) ON DELETE CASCADE</text>
</g>
<!-- public.permissions -->
<g id="node3" class="node">
<title>public.permissions</title>
<polygon fill="#efefef" stroke="none" points="545.9,-320.4 545.9,-356 819.88,-356 819.88,-320.4 545.9,-320.4"/>
<polygon fill="none" stroke="black" points="545.9,-320.4 545.9,-356 819.88,-356 819.88,-320.4 545.9,-320.4"/>
<text text-anchor="start" x="552.9" y="-333.8" font-family="Arial Bold" font-size="18.00">public.permissions</text>
<text text-anchor="start" x="688.39" y="-333.8" font-family="Arial" font-size="14.00">    </text>
<text text-anchor="start" x="719.5" y="-333.8" font-family="Arial" font-size="14.00" fill="#666666">[BASE TABLE]</text>
<polygon fill="none" stroke="black" points="545.9,-289.6 545.9,-320.4 819.88,-320.4 819.88,-289.6 545.9,-289.6"/>
<text text-anchor="start" x="552.9" y="-301.8" font-family="Arial" font-size="14.00">id </text>
<text text-anchor="start" x="567.68" y="-301.8" font-family="Arial" font-size="14.00" fill="#666666">[bigint]</text>
<polygon fill="none" stroke="black" points="545.9,-258.8 545.9,-289.6 819.88,-289.6 819.88,-258.8 545.9,-258.8"/>
<text text-anchor="start" x="552.9" y="-271" font-family="Arial" font-size="14.00">name </text>
<text text-anchor="start" x="591.81" y="-271" font-family="Arial" font-size="14.00" fill="#666666">[varchar(100)]</text>
<polygon fill="none" stroke="black" points="545.9,-228 545.9,-258.8 819.88,-258.8 819.88,-228 545.9,-228"/>
<text text-anchor="start" x="552.9" y="-240.2" font-family="Arial" font-size="14.00">resource </text>
<text text-anchor="start" x="611.25" y="-240.2" font-family="Arial" font-size="14.00" fill="#666666">[varchar(50)]</text>
<polygon fill="none" stroke="black" points="545.9,-197.2 545.9,-228 819.88,-228 819.88,-197.2 545.9,-197.2"/>
<text text-anchor="start" x="552.9" y="-209.4" font-family="Arial" font-size="14.00">action </text>
<text text-anchor="start" x="594.14" y="-209.4" font-family="Arial" font-size="14.00" fill="#666666">[varchar(50)]</text>
<polygon fill="none" stroke="black" points="545.9,-166.4 545.9,-197.2 819.88,-197.2 819.88,-166.4 545.9,-166.4"/>
<text text-anchor="start" x="552.9" y="-178.6" font-family="Arial" font-size="14.00">description </text>
<text text-anchor="start" x="624.49" y="-178.6" font-family="Arial" font-size="14.00" fill="#666666">[varchar(200)]</text>
<polygon fill="none" stroke="black" points="545.9,-135.6 545.9,-166.4 819.88,-166.4 819.88,-135.6 545.9,-135.6"/>
<text text-anchor="start" x="552.9" y="-147.8" font-family="Arial" font-size="14.00">is_active </text>
<text text-anchor="start" x="611.25" y="-147.8" font-family="Arial" font-size="14.00" fill="#666666">[boolean]</text>
<polygon fill="none" stroke="black" points="545.9,-104.8 545.9,-135.6 819.88,-135.6 819.88,-104.8 545.9,-104.8"/>
<text text-anchor="start" x="552.9" y="-117" font-family="Arial" font-size="14.00">created_at </text>
<text text-anchor="start" x="622.94" y="-117" font-family="Arial" font-size="14.00" fill="#666666">[timestamp with time zone]</text>
<polygon fill="none" stroke="black" points="545.9,-74 545.9,-104.8 819.88,-104.8 819.88,-74 545.9,-74"/>
<text text-anchor="start" x="552.9" y="-86.2" font-family="Arial" font-size="14.00">updated_at </text>
<text text-anchor="start" x="626.85" y="-86.2" font-family="Arial" font-size="14.00" fill="#666666">[timestamp with time zone]</text>
<polygon fill="none" stroke="black" points="545.9,-43.2 545.9,-74 819.88,-74 819.88,-43.2 545.9,-43.2"/>
<text text-anchor="start" x="552.9" y="-55.4" font-family="Arial" font-size="14.00">deleted_at </text>
<text text-anchor="start" x="622.18" y="-55.4" font-family="Arial" font-size="14.00" fill="#666666">[timestamp with time zone]</text>
</g>
<!-- public.role_permissions&#45;&gt;public.permissions -->
<g id="edge2" class="edge">
<title>public.role_permissions:permission_id&#45;&gt;public.permissions:id</title>
<path fill="none" stroke="black" d="M665.44,-494.12C678.85,-484.87 668.04,-453.82 654.37,-435.2 624.31,-394.25 575.84,-440.23 545.9,-399.2 521.21,-365.38 503.03,-305 544.9,-305"/>
<polygon fill="black" stroke="black" points="665.36,-494.14 654.54,-492.37 660.2,-495.52 656.02,-496.63 656.02,-496.63 656.02,-496.63 660.2,-495.52 656.85,-501.06 665.36,-494.14"/>
<text text-anchor="start" x="662.37" y="-506.8" font-family="Arial" font-size="10.00">FOREIGN KEY (permission_id) REFERENCES permissions(id) ON DELETE CASCADE</text>
</g>
</g>
</svg>
