<?xml version="1.0" encoding="UTF-8" standalone="no"?>
<!DOCTYPE svg PUBLIC "-//W3C//DTD SVG 1.1//EN"
 "http://www.w3.org/Graphics/SVG/1.1/DTD/svg11.dtd">
<!-- Generated by graphviz version 12.1.2 (20240928.0832)
 -->
<!-- Title: public.permissions Pages: 1 -->
<svg width="612pt" height="633pt"
 viewBox="0.00 0.00 612.44 632.80" xmlns="http://www.w3.org/2000/svg" xmlns:xlink="http://www.w3.org/1999/xlink">
<g id="graph0" class="graph" transform="scale(1 1) rotate(0) translate(4 628.8)">
<title>public.permissions</title>
<polygon fill="white" stroke="none" points="-4,4 -4,-628.8 608.44,-628.8 608.44,4 -4,4"/>
<!-- public.permissions -->
<g id="node1" class="node">
<title>public.permissions</title>
<polygon fill="#efefef" stroke="none" points="268.76,-323.4 268.76,-359 542.74,-359 542.74,-323.4 268.76,-323.4"/>
<polygon fill="none" stroke="black" points="268.76,-323.4 268.76,-359 542.74,-359 542.74,-323.4 268.76,-323.4"/>
<text text-anchor="start" x="275.76" y="-336.8" font-family="Arial Bold" font-size="18.00">public.permissions</text>
<text text-anchor="start" x="411.25" y="-336.8" font-family="Arial" font-size="14.00">    </text>
<text text-anchor="start" x="442.37" y="-336.8" font-family="Arial" font-size="14.00" fill="#666666">[BASE TABLE]</text>
<polygon fill="none" stroke="black" points="268.76,-292.6 268.76,-323.4 542.74,-323.4 542.74,-292.6 268.76,-292.6"/>
<text text-anchor="start" x="275.76" y="-304.8" font-family="Arial" font-size="14.00">id </text>
<text text-anchor="start" x="290.55" y="-304.8" font-family="Arial" font-size="14.00" fill="#666666">[bigint]</text>
<polygon fill="none" stroke="black" points="268.76,-261.8 268.76,-292.6 542.74,-292.6 542.74,-261.8 268.76,-261.8"/>
<text text-anchor="start" x="275.76" y="-274" font-family="Arial" font-size="14.00">name </text>
<text text-anchor="start" x="314.67" y="-274" font-family="Arial" font-size="14.00" fill="#666666">[varchar(100)]</text>
<polygon fill="none" stroke="black" points="268.76,-231 268.76,-261.8 542.74,-261.8 542.74,-231 268.76,-231"/>
<text text-anchor="start" x="275.76" y="-243.2" font-family="Arial" font-size="14.00">resource </text>
<text text-anchor="start" x="334.12" y="-243.2" font-family="Arial" font-size="14.00" fill="#666666">[varchar(50)]</text>
<polygon fill="none" stroke="black" points="268.76,-200.2 268.76,-231 542.74,-231 542.74,-200.2 268.76,-200.2"/>
<text text-anchor="start" x="275.76" y="-212.4" font-family="Arial" font-size="14.00">action </text>
<text text-anchor="start" x="317.01" y="-212.4" font-family="Arial" font-size="14.00" fill="#666666">[varchar(50)]</text>
<polygon fill="none" stroke="black" points="268.76,-169.4 268.76,-200.2 542.74,-200.2 542.74,-169.4 268.76,-169.4"/>
<text text-anchor="start" x="275.76" y="-181.6" font-family="Arial" font-size="14.00">description </text>
<text text-anchor="start" x="347.35" y="-181.6" font-family="Arial" font-size="14.00" fill="#666666">[varchar(200)]</text>
<polygon fill="none" stroke="black" points="268.76,-138.6 268.76,-169.4 542.74,-169.4 542.74,-138.6 268.76,-138.6"/>
<text text-anchor="start" x="275.76" y="-150.8" font-family="Arial" font-size="14.00">is_active </text>
<text text-anchor="start" x="334.12" y="-150.8" font-family="Arial" font-size="14.00" fill="#666666">[boolean]</text>
<polygon fill="none" stroke="black" points="268.76,-107.8 268.76,-138.6 542.74,-138.6 542.74,-107.8 268.76,-107.8"/>
<text text-anchor="start" x="275.76" y="-120" font-family="Arial" font-size="14.00">created_at </text>
<text text-anchor="start" x="345.81" y="-120" font-family="Arial" font-size="14.00" fill="#666666">[timestamp with time zone]</text>
<polygon fill="none" stroke="black" points="268.76,-77 268.76,-107.8 542.74,-107.8 542.74,-77 268.76,-77"/>
<text text-anchor="start" x="275.76" y="-89.2" font-family="Arial" font-size="14.00">updated_at </text>
<text text-anchor="start" x="349.72" y="-89.2" font-family="Arial" font-size="14.00" fill="#666666">[timestamp with time zone]</text>
<polygon fill="none" stroke="black" points="268.76,-46.2 268.76,-77 542.74,-77 542.74,-46.2 268.76,-46.2"/>
<text text-anchor="start" x="275.76" y="-58.4" font-family="Arial" font-size="14.00">deleted_at </text>
<text text-anchor="start" x="345.04" y="-58.4" font-family="Arial" font-size="14.00" fill="#666666">[timestamp with time zone]</text>
<polygon fill="none" stroke="black" stroke-width="3" points="267.26,-44.7 267.26,-360.5 544.24,-360.5 544.24,-44.7 267.26,-44.7"/>
</g>
<!-- public.role_permissions -->
<g id="node2" class="node">
<title>public.role_permissions</title>
<polygon fill="#efefef" stroke="none" points="250.27,-546 250.27,-581.6 561.24,-581.6 561.24,-546 250.27,-546"/>
<polygon fill="none" stroke="black" points="250.27,-546 250.27,-581.6 561.24,-581.6 561.24,-546 250.27,-546"/>
<text text-anchor="start" x="257.27" y="-559.4" font-family="Arial Bold" font-size="18.00">public.role_permissions</text>
<text text-anchor="start" x="429.75" y="-559.4" font-family="Arial" font-size="14.00">    </text>
<text text-anchor="start" x="460.86" y="-559.4" font-family="Arial" font-size="14.00" fill="#666666">[BASE TABLE]</text>
<polygon fill="none" stroke="black" points="250.27,-515.2 250.27,-546 561.24,-546 561.24,-515.2 250.27,-515.2"/>
<text text-anchor="start" x="257.27" y="-527.4" font-family="Arial" font-size="14.00">role_id </text>
<text text-anchor="start" x="303.19" y="-527.4" font-family="Arial" font-size="14.00" fill="#666666">[bigint]</text>
<polygon fill="none" stroke="black" points="250.27,-484.4 250.27,-515.2 561.24,-515.2 561.24,-484.4 250.27,-484.4"/>
<text text-anchor="start" x="257.27" y="-496.6" font-family="Arial" font-size="14.00">permission_id </text>
<text text-anchor="start" x="347.53" y="-496.6" font-family="Arial" font-size="14.00" fill="#666666">[bigint]</text>
</g>
<!-- public.role_permissions&#45;&gt;public.permissions -->
<g id="edge1" class="edge">
<title>public.role_permissions:permission_id&#45;&gt;public.permissions:id</title>
<path fill="none" stroke="black" d="M406.57,-473.3C416.27,-418.5 509.1,-462.46 542.74,-405.2 564.63,-367.95 586.95,-308 543.74,-308"/>
<polygon fill="black" stroke="black" points="406.59,-473.1 401.29,-482.7 406.16,-478.42 405.81,-482.73 405.81,-482.73 405.81,-482.73 406.16,-478.42 410.27,-483.43 406.59,-473.1"/>
<text text-anchor="start" x="7" y="-493.4" font-family="Arial" font-size="10.00">FOREIGN KEY (permission_id) REFERENCES permissions(id) ON DELETE CASCADE</text>
</g>
</g>
</svg>
