<?xml version="1.0" encoding="UTF-8" standalone="no"?>
<!DOCTYPE svg PUBLIC "-//W3C//DTD SVG 1.1//EN"
 "http://www.w3.org/Graphics/SVG/1.1/DTD/svg11.dtd">
<!-- Generated by graphviz version 12.1.2 (20240928.0832)
 -->
<!-- Title: public.consent_records Pages: 1 -->
<svg width="599pt" height="1526pt"
 viewBox="0.00 0.00 599.23 1526.00" xmlns="http://www.w3.org/2000/svg" xmlns:xlink="http://www.w3.org/1999/xlink">
<g id="graph0" class="graph" transform="scale(1 1) rotate(0) translate(4 1522)">
<title>public.consent_records</title>
<polygon fill="white" stroke="none" points="-4,4 -4,-1522 595.23,-1522 595.23,4 -4,4"/>
<!-- public.consent_records -->
<g id="node1" class="node">
<title>public.consent_records</title>
<polygon fill="#efefef" stroke="none" points="47.92,-1436.2 47.92,-1471.8 352.85,-1471.8 352.85,-1436.2 47.92,-1436.2"/>
<polygon fill="none" stroke="black" points="47.92,-1436.2 47.92,-1471.8 352.85,-1471.8 352.85,-1436.2 47.92,-1436.2"/>
<text text-anchor="start" x="54.92" y="-1449.6" font-family="Arial Bold" font-size="18.00">public.consent_records</text>
<text text-anchor="start" x="221.36" y="-1449.6" font-family="Arial" font-size="14.00">    </text>
<text text-anchor="start" x="252.48" y="-1449.6" font-family="Arial" font-size="14.00" fill="#666666">[BASE TABLE]</text>
<polygon fill="none" stroke="black" points="47.92,-1405.4 47.92,-1436.2 352.85,-1436.2 352.85,-1405.4 47.92,-1405.4"/>
<text text-anchor="start" x="54.92" y="-1417.6" font-family="Arial" font-size="14.00">id </text>
<text text-anchor="start" x="69.7" y="-1417.6" font-family="Arial" font-size="14.00" fill="#666666">[uuid]</text>
<polygon fill="none" stroke="black" points="47.92,-1374.6 47.92,-1405.4 352.85,-1405.4 352.85,-1374.6 47.92,-1374.6"/>
<text text-anchor="start" x="54.92" y="-1386.8" font-family="Arial" font-size="14.00">created_at </text>
<text text-anchor="start" x="124.97" y="-1386.8" font-family="Arial" font-size="14.00" fill="#666666">[timestamp with time zone]</text>
<polygon fill="none" stroke="black" points="47.92,-1343.8 47.92,-1374.6 352.85,-1374.6 352.85,-1343.8 47.92,-1343.8"/>
<text text-anchor="start" x="54.92" y="-1356" font-family="Arial" font-size="14.00">updated_at </text>
<text text-anchor="start" x="128.88" y="-1356" font-family="Arial" font-size="14.00" fill="#666666">[timestamp with time zone]</text>
<polygon fill="none" stroke="black" points="47.92,-1313 47.92,-1343.8 352.85,-1343.8 352.85,-1313 47.92,-1313"/>
<text text-anchor="start" x="54.92" y="-1325.2" font-family="Arial" font-size="14.00">deleted_at </text>
<text text-anchor="start" x="124.2" y="-1325.2" font-family="Arial" font-size="14.00" fill="#666666">[timestamp with time zone]</text>
<polygon fill="none" stroke="black" points="47.92,-1282.2 47.92,-1313 352.85,-1313 352.85,-1282.2 47.92,-1282.2"/>
<text text-anchor="start" x="54.92" y="-1294.4" font-family="Arial" font-size="14.00">data_subject </text>
<text text-anchor="start" x="138.2" y="-1294.4" font-family="Arial" font-size="14.00" fill="#666666">[varchar(255)]</text>
<polygon fill="none" stroke="black" points="47.92,-1251.4 47.92,-1282.2 352.85,-1282.2 352.85,-1251.4 47.92,-1251.4"/>
<text text-anchor="start" x="54.92" y="-1263.6" font-family="Arial" font-size="14.00">user_id </text>
<text text-anchor="start" x="104.72" y="-1263.6" font-family="Arial" font-size="14.00" fill="#666666">[uuid]</text>
<polygon fill="none" stroke="black" points="47.92,-1220.6 47.92,-1251.4 352.85,-1251.4 352.85,-1220.6 47.92,-1220.6"/>
<text text-anchor="start" x="54.92" y="-1232.8" font-family="Arial" font-size="14.00">consent_type </text>
<text text-anchor="start" x="142.09" y="-1232.8" font-family="Arial" font-size="14.00" fill="#666666">[varchar(100)]</text>
<polygon fill="none" stroke="black" points="47.92,-1189.8 47.92,-1220.6 352.85,-1220.6 352.85,-1189.8 47.92,-1189.8"/>
<text text-anchor="start" x="54.92" y="-1202" font-family="Arial" font-size="14.00">purpose </text>
<text text-anchor="start" x="109.4" y="-1202" font-family="Arial" font-size="14.00" fill="#666666">[varchar(500)]</text>
<polygon fill="none" stroke="black" points="47.92,-1159 47.92,-1189.8 352.85,-1189.8 352.85,-1159 47.92,-1159"/>
<text text-anchor="start" x="54.92" y="-1171.2" font-family="Arial" font-size="14.00">legal_basis </text>
<text text-anchor="start" x="128.85" y="-1171.2" font-family="Arial" font-size="14.00" fill="#666666">[varchar(100)]</text>
<polygon fill="none" stroke="black" points="47.92,-1128.2 47.92,-1159 352.85,-1159 352.85,-1128.2 47.92,-1128.2"/>
<text text-anchor="start" x="54.92" y="-1140.4" font-family="Arial" font-size="14.00">data_categories </text>
<text text-anchor="start" x="158.43" y="-1140.4" font-family="Arial" font-size="14.00" fill="#666666">[jsonb]</text>
<polygon fill="none" stroke="black" points="47.92,-1097.4 47.92,-1128.2 352.85,-1128.2 352.85,-1097.4 47.92,-1097.4"/>
<text text-anchor="start" x="54.92" y="-1109.6" font-family="Arial" font-size="14.00">status </text>
<text text-anchor="start" x="96.16" y="-1109.6" font-family="Arial" font-size="14.00" fill="#666666">[varchar(50)]</text>
<polygon fill="none" stroke="black" points="47.92,-1066.6 47.92,-1097.4 352.85,-1097.4 352.85,-1066.6 47.92,-1066.6"/>
<text text-anchor="start" x="54.92" y="-1078.8" font-family="Arial" font-size="14.00">consent_given </text>
<text text-anchor="start" x="149.1" y="-1078.8" font-family="Arial" font-size="14.00" fill="#666666">[boolean]</text>
<polygon fill="none" stroke="black" points="47.92,-1035.8 47.92,-1066.6 352.85,-1066.6 352.85,-1035.8 47.92,-1035.8"/>
<text text-anchor="start" x="54.92" y="-1048" font-family="Arial" font-size="14.00">consent_date </text>
<text text-anchor="start" x="142.88" y="-1048" font-family="Arial" font-size="14.00" fill="#666666">[timestamp with time zone]</text>
<polygon fill="none" stroke="black" points="47.92,-1005 47.92,-1035.8 352.85,-1035.8 352.85,-1005 47.92,-1005"/>
<text text-anchor="start" x="54.92" y="-1017.2" font-family="Arial" font-size="14.00">withdrawn_date </text>
<text text-anchor="start" x="156.87" y="-1017.2" font-family="Arial" font-size="14.00" fill="#666666">[timestamp with time zone]</text>
<polygon fill="none" stroke="black" points="47.92,-974.2 47.92,-1005 352.85,-1005 352.85,-974.2 47.92,-974.2"/>
<text text-anchor="start" x="54.92" y="-986.4" font-family="Arial" font-size="14.00">expiry_date </text>
<text text-anchor="start" x="131.19" y="-986.4" font-family="Arial" font-size="14.00" fill="#666666">[timestamp with time zone]</text>
<polygon fill="none" stroke="black" points="47.92,-943.4 47.92,-974.2 352.85,-974.2 352.85,-943.4 47.92,-943.4"/>
<text text-anchor="start" x="54.92" y="-955.6" font-family="Arial" font-size="14.00">consent_method </text>
<text text-anchor="start" x="162.32" y="-955.6" font-family="Arial" font-size="14.00" fill="#666666">[varchar(100)]</text>
<polygon fill="none" stroke="black" points="47.92,-912.6 47.92,-943.4 352.85,-943.4 352.85,-912.6 47.92,-912.6"/>
<text text-anchor="start" x="54.92" y="-924.8" font-family="Arial" font-size="14.00">consent_text </text>
<text text-anchor="start" x="138.19" y="-924.8" font-family="Arial" font-size="14.00" fill="#666666">[text]</text>
<polygon fill="none" stroke="black" points="47.92,-881.8 47.92,-912.6 352.85,-912.6 352.85,-881.8 47.92,-881.8"/>
<text text-anchor="start" x="54.92" y="-894" font-family="Arial" font-size="14.00">consent_version </text>
<text text-anchor="start" x="160.76" y="-894" font-family="Arial" font-size="14.00" fill="#666666">[varchar(20)]</text>
<polygon fill="none" stroke="black" points="47.92,-851 47.92,-881.8 352.85,-881.8 352.85,-851 47.92,-851"/>
<text text-anchor="start" x="54.92" y="-863.2" font-family="Arial" font-size="14.00">ip_address </text>
<text text-anchor="start" x="127.3" y="-863.2" font-family="Arial" font-size="14.00" fill="#666666">[varchar(45)]</text>
<polygon fill="none" stroke="black" points="47.92,-820.2 47.92,-851 352.85,-851 352.85,-820.2 47.92,-820.2"/>
<text text-anchor="start" x="54.92" y="-832.4" font-family="Arial" font-size="14.00">user_agent </text>
<text text-anchor="start" x="128.86" y="-832.4" font-family="Arial" font-size="14.00" fill="#666666">[varchar(500)]</text>
<polygon fill="none" stroke="black" points="47.92,-789.4 47.92,-820.2 352.85,-820.2 352.85,-789.4 47.92,-789.4"/>
<text text-anchor="start" x="54.92" y="-801.6" font-family="Arial" font-size="14.00">consent_proof </text>
<text text-anchor="start" x="147.54" y="-801.6" font-family="Arial" font-size="14.00" fill="#666666">[jsonb]</text>
<polygon fill="none" stroke="black" points="47.92,-758.6 47.92,-789.4 352.85,-789.4 352.85,-758.6 47.92,-758.6"/>
<text text-anchor="start" x="54.92" y="-770.8" font-family="Arial" font-size="14.00">withdrawal_method </text>
<text text-anchor="start" x="179.43" y="-770.8" font-family="Arial" font-size="14.00" fill="#666666">[varchar(100)]</text>
<polygon fill="none" stroke="black" points="47.92,-727.8 47.92,-758.6 352.85,-758.6 352.85,-727.8 47.92,-727.8"/>
<text text-anchor="start" x="54.92" y="-740" font-family="Arial" font-size="14.00">withdrawal_reason </text>
<text text-anchor="start" x="175.54" y="-740" font-family="Arial" font-size="14.00" fill="#666666">[varchar(500)]</text>
<polygon fill="none" stroke="black" stroke-width="3" points="46.42,-726.3 46.42,-1473.3 354.35,-1473.3 354.35,-726.3 46.42,-726.3"/>
</g>
<!-- public.users -->
<g id="node2" class="node">
<title>public.users</title>
<polygon fill="#efefef" stroke="none" points="43.2,-566.8 43.2,-602.4 357.57,-602.4 357.57,-566.8 43.2,-566.8"/>
<polygon fill="none" stroke="black" points="43.2,-566.8 43.2,-602.4 357.57,-602.4 357.57,-566.8 43.2,-566.8"/>
<text text-anchor="start" x="94.9" y="-580.2" font-family="Arial Bold" font-size="18.00">public.users</text>
<text text-anchor="start" x="181.38" y="-580.2" font-family="Arial" font-size="14.00">    </text>
<text text-anchor="start" x="212.5" y="-580.2" font-family="Arial" font-size="14.00" fill="#666666">[BASE TABLE]</text>
<polygon fill="none" stroke="black" points="43.2,-536 43.2,-566.8 357.57,-566.8 357.57,-536 43.2,-536"/>
<text text-anchor="start" x="50.2" y="-548.2" font-family="Arial" font-size="14.00">id </text>
<text text-anchor="start" x="64.99" y="-548.2" font-family="Arial" font-size="14.00" fill="#666666">[uuid]</text>
<polygon fill="none" stroke="black" points="43.2,-505.2 43.2,-536 357.57,-536 357.57,-505.2 43.2,-505.2"/>
<text text-anchor="start" x="50.2" y="-517.4" font-family="Arial" font-size="14.00">username </text>
<text text-anchor="start" x="116.34" y="-517.4" font-family="Arial" font-size="14.00" fill="#666666">[varchar(50)]</text>
<polygon fill="none" stroke="black" points="43.2,-474.4 43.2,-505.2 357.57,-505.2 357.57,-474.4 43.2,-474.4"/>
<text text-anchor="start" x="50.2" y="-486.6" font-family="Arial" font-size="14.00">email </text>
<text text-anchor="start" x="87.54" y="-486.6" font-family="Arial" font-size="14.00" fill="#666666">[varchar(100)]</text>
<polygon fill="none" stroke="black" points="43.2,-443.6 43.2,-474.4 357.57,-474.4 357.57,-443.6 43.2,-443.6"/>
<text text-anchor="start" x="50.2" y="-455.8" font-family="Arial" font-size="14.00">password_hash </text>
<text text-anchor="start" x="152.15" y="-455.8" font-family="Arial" font-size="14.00" fill="#666666">[varchar(255)]</text>
<polygon fill="none" stroke="black" points="43.2,-412.8 43.2,-443.6 357.57,-443.6 357.57,-412.8 43.2,-412.8"/>
<text text-anchor="start" x="50.2" y="-425" font-family="Arial" font-size="14.00">first_name </text>
<text text-anchor="start" x="119.45" y="-425" font-family="Arial" font-size="14.00" fill="#666666">[varchar(50)]</text>
<polygon fill="none" stroke="black" points="43.2,-382 43.2,-412.8 357.57,-412.8 357.57,-382 43.2,-382"/>
<text text-anchor="start" x="50.2" y="-394.2" font-family="Arial" font-size="14.00">last_name </text>
<text text-anchor="start" x="118.68" y="-394.2" font-family="Arial" font-size="14.00" fill="#666666">[varchar(50)]</text>
<polygon fill="none" stroke="black" points="43.2,-351.2 43.2,-382 357.57,-382 357.57,-351.2 43.2,-351.2"/>
<text text-anchor="start" x="50.2" y="-363.4" font-family="Arial" font-size="14.00">is_active </text>
<text text-anchor="start" x="108.56" y="-363.4" font-family="Arial" font-size="14.00" fill="#666666">[boolean]</text>
<polygon fill="none" stroke="black" points="43.2,-320.4 43.2,-351.2 357.57,-351.2 357.57,-320.4 43.2,-320.4"/>
<text text-anchor="start" x="50.2" y="-332.6" font-family="Arial" font-size="14.00">is_admin </text>
<text text-anchor="start" x="110.12" y="-332.6" font-family="Arial" font-size="14.00" fill="#666666">[boolean]</text>
<polygon fill="none" stroke="black" points="43.2,-289.6 43.2,-320.4 357.57,-320.4 357.57,-289.6 43.2,-289.6"/>
<text text-anchor="start" x="50.2" y="-301.8" font-family="Arial" font-size="14.00">failed_login_attempts </text>
<text text-anchor="start" x="186.4" y="-301.8" font-family="Arial" font-size="14.00" fill="#666666">[integer]</text>
<polygon fill="none" stroke="black" points="43.2,-258.8 43.2,-289.6 357.57,-289.6 357.57,-258.8 43.2,-258.8"/>
<text text-anchor="start" x="50.2" y="-271" font-family="Arial" font-size="14.00">last_failed_login_at </text>
<text text-anchor="start" x="173.96" y="-271" font-family="Arial" font-size="14.00" fill="#666666">[timestamp with time zone]</text>
<polygon fill="none" stroke="black" points="43.2,-228 43.2,-258.8 357.57,-258.8 357.57,-228 43.2,-228"/>
<text text-anchor="start" x="50.2" y="-240.2" font-family="Arial" font-size="14.00">account_locked_at </text>
<text text-anchor="start" x="170.84" y="-240.2" font-family="Arial" font-size="14.00" fill="#666666">[timestamp with time zone]</text>
<polygon fill="none" stroke="black" points="43.2,-197.2 43.2,-228 357.57,-228 357.57,-197.2 43.2,-197.2"/>
<text text-anchor="start" x="50.2" y="-209.4" font-family="Arial" font-size="14.00">account_locked_until </text>
<text text-anchor="start" x="184.85" y="-209.4" font-family="Arial" font-size="14.00" fill="#666666">[timestamp with time zone]</text>
<polygon fill="none" stroke="black" points="43.2,-166.4 43.2,-197.2 357.57,-197.2 357.57,-166.4 43.2,-166.4"/>
<text text-anchor="start" x="50.2" y="-178.6" font-family="Arial" font-size="14.00">last_login_at </text>
<text text-anchor="start" x="132.7" y="-178.6" font-family="Arial" font-size="14.00" fill="#666666">[timestamp with time zone]</text>
<polygon fill="none" stroke="black" points="43.2,-135.6 43.2,-166.4 357.57,-166.4 357.57,-135.6 43.2,-135.6"/>
<text text-anchor="start" x="50.2" y="-147.8" font-family="Arial" font-size="14.00">last_login_ip </text>
<text text-anchor="start" x="131.92" y="-147.8" font-family="Arial" font-size="14.00" fill="#666666">[varchar(45)]</text>
<polygon fill="none" stroke="black" points="43.2,-104.8 43.2,-135.6 357.57,-135.6 357.57,-104.8 43.2,-104.8"/>
<text text-anchor="start" x="50.2" y="-117" font-family="Arial" font-size="14.00">created_at </text>
<text text-anchor="start" x="120.25" y="-117" font-family="Arial" font-size="14.00" fill="#666666">[timestamp with time zone]</text>
<polygon fill="none" stroke="black" points="43.2,-74 43.2,-104.8 357.57,-104.8 357.57,-74 43.2,-74"/>
<text text-anchor="start" x="50.2" y="-86.2" font-family="Arial" font-size="14.00">updated_at </text>
<text text-anchor="start" x="124.16" y="-86.2" font-family="Arial" font-size="14.00" fill="#666666">[timestamp with time zone]</text>
<polygon fill="none" stroke="black" points="43.2,-43.2 43.2,-74 357.57,-74 357.57,-43.2 43.2,-43.2"/>
<text text-anchor="start" x="50.2" y="-55.4" font-family="Arial" font-size="14.00">deleted_at </text>
<text text-anchor="start" x="119.48" y="-55.4" font-family="Arial" font-size="14.00" fill="#666666">[timestamp with time zone]</text>
</g>
<!-- public.consent_records&#45;&gt;public.users -->
<g id="edge1" class="edge">
<title>public.consent_records:user_id&#45;&gt;public.users:id</title>
<path fill="none" stroke="black" d="M363.26,-1263.29C433.59,-1209.32 434.8,-551.4 358.57,-551.4"/>
<polygon fill="black" stroke="black" points="363.54,-1263.18 352.59,-1262.47 358.54,-1265.05 354.48,-1266.57 354.48,-1266.57 354.48,-1266.57 358.54,-1265.05 355.74,-1270.9 363.54,-1263.18"/>
<text text-anchor="start" x="360.85" y="-1276.8" font-family="Arial" font-size="10.00">FOREIGN KEY (user_id) REFERENCES users(id)</text>
</g>
</g>
</svg>
