<?xml version="1.0" encoding="UTF-8" standalone="no"?>
<!DOCTYPE svg PUBLIC "-//W3C//DTD SVG 1.1//EN"
 "http://www.w3.org/Graphics/SVG/1.1/DTD/svg11.dtd">
<!-- Generated by graphviz version 12.1.2 (20240928.0832)
 -->
<!-- Title: public.users Pages: 1 -->
<svg width="1287pt" height="1957pt"
 viewBox="0.00 0.00 1287.33 1957.20" xmlns="http://www.w3.org/2000/svg" xmlns:xlink="http://www.w3.org/1999/xlink">
<g id="graph0" class="graph" transform="scale(1 1) rotate(0) translate(4 1953.2)">
<title>public.users</title>
<polygon fill="white" stroke="none" points="-4,4 -4,-1953.2 1283.33,-1953.2 1283.33,4 -4,4"/>
<!-- public.users -->
<g id="node1" class="node">
<title>public.users</title>
<polygon fill="#efefef" stroke="none" points="492.48,-569.8 492.48,-605.4 806.85,-605.4 806.85,-569.8 492.48,-569.8"/>
<polygon fill="none" stroke="black" points="492.48,-569.8 492.48,-605.4 806.85,-605.4 806.85,-569.8 492.48,-569.8"/>
<text text-anchor="start" x="544.18" y="-583.2" font-family="Arial Bold" font-size="18.00">public.users</text>
<text text-anchor="start" x="630.66" y="-583.2" font-family="Arial" font-size="14.00">    </text>
<text text-anchor="start" x="661.78" y="-583.2" font-family="Arial" font-size="14.00" fill="#666666">[BASE TABLE]</text>
<polygon fill="none" stroke="black" points="492.48,-539 492.48,-569.8 806.85,-569.8 806.85,-539 492.48,-539"/>
<text text-anchor="start" x="499.48" y="-551.2" font-family="Arial" font-size="14.00">id </text>
<text text-anchor="start" x="514.27" y="-551.2" font-family="Arial" font-size="14.00" fill="#666666">[uuid]</text>
<polygon fill="none" stroke="black" points="492.48,-508.2 492.48,-539 806.85,-539 806.85,-508.2 492.48,-508.2"/>
<text text-anchor="start" x="499.48" y="-520.4" font-family="Arial" font-size="14.00">username </text>
<text text-anchor="start" x="565.62" y="-520.4" font-family="Arial" font-size="14.00" fill="#666666">[varchar(50)]</text>
<polygon fill="none" stroke="black" points="492.48,-477.4 492.48,-508.2 806.85,-508.2 806.85,-477.4 492.48,-477.4"/>
<text text-anchor="start" x="499.48" y="-489.6" font-family="Arial" font-size="14.00">email </text>
<text text-anchor="start" x="536.83" y="-489.6" font-family="Arial" font-size="14.00" fill="#666666">[varchar(100)]</text>
<polygon fill="none" stroke="black" points="492.48,-446.6 492.48,-477.4 806.85,-477.4 806.85,-446.6 492.48,-446.6"/>
<text text-anchor="start" x="499.48" y="-458.8" font-family="Arial" font-size="14.00">password_hash </text>
<text text-anchor="start" x="601.43" y="-458.8" font-family="Arial" font-size="14.00" fill="#666666">[varchar(255)]</text>
<polygon fill="none" stroke="black" points="492.48,-415.8 492.48,-446.6 806.85,-446.6 806.85,-415.8 492.48,-415.8"/>
<text text-anchor="start" x="499.48" y="-428" font-family="Arial" font-size="14.00">first_name </text>
<text text-anchor="start" x="568.73" y="-428" font-family="Arial" font-size="14.00" fill="#666666">[varchar(50)]</text>
<polygon fill="none" stroke="black" points="492.48,-385 492.48,-415.8 806.85,-415.8 806.85,-385 492.48,-385"/>
<text text-anchor="start" x="499.48" y="-397.2" font-family="Arial" font-size="14.00">last_name </text>
<text text-anchor="start" x="567.96" y="-397.2" font-family="Arial" font-size="14.00" fill="#666666">[varchar(50)]</text>
<polygon fill="none" stroke="black" points="492.48,-354.2 492.48,-385 806.85,-385 806.85,-354.2 492.48,-354.2"/>
<text text-anchor="start" x="499.48" y="-366.4" font-family="Arial" font-size="14.00">is_active </text>
<text text-anchor="start" x="557.84" y="-366.4" font-family="Arial" font-size="14.00" fill="#666666">[boolean]</text>
<polygon fill="none" stroke="black" points="492.48,-323.4 492.48,-354.2 806.85,-354.2 806.85,-323.4 492.48,-323.4"/>
<text text-anchor="start" x="499.48" y="-335.6" font-family="Arial" font-size="14.00">is_admin </text>
<text text-anchor="start" x="559.4" y="-335.6" font-family="Arial" font-size="14.00" fill="#666666">[boolean]</text>
<polygon fill="none" stroke="black" points="492.48,-292.6 492.48,-323.4 806.85,-323.4 806.85,-292.6 492.48,-292.6"/>
<text text-anchor="start" x="499.48" y="-304.8" font-family="Arial" font-size="14.00">failed_login_attempts </text>
<text text-anchor="start" x="635.68" y="-304.8" font-family="Arial" font-size="14.00" fill="#666666">[integer]</text>
<polygon fill="none" stroke="black" points="492.48,-261.8 492.48,-292.6 806.85,-292.6 806.85,-261.8 492.48,-261.8"/>
<text text-anchor="start" x="499.48" y="-274" font-family="Arial" font-size="14.00">last_failed_login_at </text>
<text text-anchor="start" x="623.24" y="-274" font-family="Arial" font-size="14.00" fill="#666666">[timestamp with time zone]</text>
<polygon fill="none" stroke="black" points="492.48,-231 492.48,-261.8 806.85,-261.8 806.85,-231 492.48,-231"/>
<text text-anchor="start" x="499.48" y="-243.2" font-family="Arial" font-size="14.00">account_locked_at </text>
<text text-anchor="start" x="620.12" y="-243.2" font-family="Arial" font-size="14.00" fill="#666666">[timestamp with time zone]</text>
<polygon fill="none" stroke="black" points="492.48,-200.2 492.48,-231 806.85,-231 806.85,-200.2 492.48,-200.2"/>
<text text-anchor="start" x="499.48" y="-212.4" font-family="Arial" font-size="14.00">account_locked_until </text>
<text text-anchor="start" x="634.13" y="-212.4" font-family="Arial" font-size="14.00" fill="#666666">[timestamp with time zone]</text>
<polygon fill="none" stroke="black" points="492.48,-169.4 492.48,-200.2 806.85,-200.2 806.85,-169.4 492.48,-169.4"/>
<text text-anchor="start" x="499.48" y="-181.6" font-family="Arial" font-size="14.00">last_login_at </text>
<text text-anchor="start" x="581.98" y="-181.6" font-family="Arial" font-size="14.00" fill="#666666">[timestamp with time zone]</text>
<polygon fill="none" stroke="black" points="492.48,-138.6 492.48,-169.4 806.85,-169.4 806.85,-138.6 492.48,-138.6"/>
<text text-anchor="start" x="499.48" y="-150.8" font-family="Arial" font-size="14.00">last_login_ip </text>
<text text-anchor="start" x="581.2" y="-150.8" font-family="Arial" font-size="14.00" fill="#666666">[varchar(45)]</text>
<polygon fill="none" stroke="black" points="492.48,-107.8 492.48,-138.6 806.85,-138.6 806.85,-107.8 492.48,-107.8"/>
<text text-anchor="start" x="499.48" y="-120" font-family="Arial" font-size="14.00">created_at </text>
<text text-anchor="start" x="569.53" y="-120" font-family="Arial" font-size="14.00" fill="#666666">[timestamp with time zone]</text>
<polygon fill="none" stroke="black" points="492.48,-77 492.48,-107.8 806.85,-107.8 806.85,-77 492.48,-77"/>
<text text-anchor="start" x="499.48" y="-89.2" font-family="Arial" font-size="14.00">updated_at </text>
<text text-anchor="start" x="573.44" y="-89.2" font-family="Arial" font-size="14.00" fill="#666666">[timestamp with time zone]</text>
<polygon fill="none" stroke="black" points="492.48,-46.2 492.48,-77 806.85,-77 806.85,-46.2 492.48,-46.2"/>
<text text-anchor="start" x="499.48" y="-58.4" font-family="Arial" font-size="14.00">deleted_at </text>
<text text-anchor="start" x="568.76" y="-58.4" font-family="Arial" font-size="14.00" fill="#666666">[timestamp with time zone]</text>
<polygon fill="none" stroke="black" stroke-width="3" points="490.98,-44.7 490.98,-606.9 808.35,-606.9 808.35,-44.7 490.98,-44.7"/>
</g>
<!-- public.device_attestations -->
<g id="node2" class="node">
<title>public.device_attestations</title>
<polygon fill="#efefef" stroke="none" points="43.2,-1531.6 43.2,-1567.2 368.13,-1567.2 368.13,-1531.6 43.2,-1531.6"/>
<polygon fill="none" stroke="black" points="43.2,-1531.6 43.2,-1567.2 368.13,-1567.2 368.13,-1531.6 43.2,-1531.6"/>
<text text-anchor="start" x="50.2" y="-1545" font-family="Arial Bold" font-size="18.00">public.device_attestations</text>
<text text-anchor="start" x="236.64" y="-1545" font-family="Arial" font-size="14.00">    </text>
<text text-anchor="start" x="267.76" y="-1545" font-family="Arial" font-size="14.00" fill="#666666">[BASE TABLE]</text>
<polygon fill="none" stroke="black" points="43.2,-1500.8 43.2,-1531.6 368.13,-1531.6 368.13,-1500.8 43.2,-1500.8"/>
<text text-anchor="start" x="50.2" y="-1513" font-family="Arial" font-size="14.00">id </text>
<text text-anchor="start" x="64.99" y="-1513" font-family="Arial" font-size="14.00" fill="#666666">[uuid]</text>
<polygon fill="none" stroke="black" points="43.2,-1470 43.2,-1500.8 368.13,-1500.8 368.13,-1470 43.2,-1470"/>
<text text-anchor="start" x="50.2" y="-1482.2" font-family="Arial" font-size="14.00">user_id </text>
<text text-anchor="start" x="100.01" y="-1482.2" font-family="Arial" font-size="14.00" fill="#666666">[uuid]</text>
<polygon fill="none" stroke="black" points="43.2,-1439.2 43.2,-1470 368.13,-1470 368.13,-1439.2 43.2,-1439.2"/>
<text text-anchor="start" x="50.2" y="-1451.4" font-family="Arial" font-size="14.00">device_id </text>
<text text-anchor="start" x="113.24" y="-1451.4" font-family="Arial" font-size="14.00" fill="#666666">[varchar(255)]</text>
<polygon fill="none" stroke="black" points="43.2,-1408.4 43.2,-1439.2 368.13,-1439.2 368.13,-1408.4 43.2,-1408.4"/>
<text text-anchor="start" x="50.2" y="-1420.6" font-family="Arial" font-size="14.00">device_name </text>
<text text-anchor="start" x="137.37" y="-1420.6" font-family="Arial" font-size="14.00" fill="#666666">[varchar(100)]</text>
<polygon fill="none" stroke="black" points="43.2,-1377.6 43.2,-1408.4 368.13,-1408.4 368.13,-1377.6 43.2,-1377.6"/>
<text text-anchor="start" x="50.2" y="-1389.8" font-family="Arial" font-size="14.00">platform </text>
<text text-anchor="start" x="104.66" y="-1389.8" font-family="Arial" font-size="14.00" fill="#666666">[varchar(50)]</text>
<polygon fill="none" stroke="black" points="43.2,-1346.8 43.2,-1377.6 368.13,-1377.6 368.13,-1346.8 43.2,-1346.8"/>
<text text-anchor="start" x="50.2" y="-1359" font-family="Arial" font-size="14.00">spiffe_id </text>
<text text-anchor="start" x="106.23" y="-1359" font-family="Arial" font-size="14.00" fill="#666666">[varchar(255)]</text>
<polygon fill="none" stroke="black" points="43.2,-1316 43.2,-1346.8 368.13,-1346.8 368.13,-1316 43.2,-1316"/>
<text text-anchor="start" x="50.2" y="-1328.2" font-family="Arial" font-size="14.00">workload_selector </text>
<text text-anchor="start" x="166.92" y="-1328.2" font-family="Arial" font-size="14.00" fill="#666666">[varchar(255)]</text>
<polygon fill="none" stroke="black" points="43.2,-1285.2 43.2,-1316 368.13,-1316 368.13,-1285.2 43.2,-1285.2"/>
<text text-anchor="start" x="50.2" y="-1297.4" font-family="Arial" font-size="14.00">attestation_data </text>
<text text-anchor="start" x="153.72" y="-1297.4" font-family="Arial" font-size="14.00" fill="#666666">[jsonb]</text>
<polygon fill="none" stroke="black" points="43.2,-1254.4 43.2,-1285.2 368.13,-1285.2 368.13,-1254.4 43.2,-1254.4"/>
<text text-anchor="start" x="50.2" y="-1266.6" font-family="Arial" font-size="14.00">status </text>
<text text-anchor="start" x="91.44" y="-1266.6" font-family="Arial" font-size="14.00" fill="#666666">[varchar(20)]</text>
<polygon fill="none" stroke="black" points="43.2,-1223.6 43.2,-1254.4 368.13,-1254.4 368.13,-1223.6 43.2,-1223.6"/>
<text text-anchor="start" x="50.2" y="-1235.8" font-family="Arial" font-size="14.00">trust_level </text>
<text text-anchor="start" x="117.9" y="-1235.8" font-family="Arial" font-size="14.00" fill="#666666">[integer]</text>
<polygon fill="none" stroke="black" points="43.2,-1192.8 43.2,-1223.6 368.13,-1223.6 368.13,-1192.8 43.2,-1192.8"/>
<text text-anchor="start" x="50.2" y="-1205" font-family="Arial" font-size="14.00">is_verified </text>
<text text-anchor="start" x="117.12" y="-1205" font-family="Arial" font-size="14.00" fill="#666666">[boolean]</text>
<polygon fill="none" stroke="black" points="43.2,-1162 43.2,-1192.8 368.13,-1192.8 368.13,-1162 43.2,-1162"/>
<text text-anchor="start" x="50.2" y="-1174.2" font-family="Arial" font-size="14.00">verified_at </text>
<text text-anchor="start" x="118.68" y="-1174.2" font-family="Arial" font-size="14.00" fill="#666666">[timestamp with time zone]</text>
<polygon fill="none" stroke="black" points="43.2,-1131.2 43.2,-1162 368.13,-1162 368.13,-1131.2 43.2,-1131.2"/>
<text text-anchor="start" x="50.2" y="-1143.4" font-family="Arial" font-size="14.00">expires_at </text>
<text text-anchor="start" x="118.68" y="-1143.4" font-family="Arial" font-size="14.00" fill="#666666">[timestamp with time zone]</text>
<polygon fill="none" stroke="black" points="43.2,-1100.4 43.2,-1131.2 368.13,-1131.2 368.13,-1100.4 43.2,-1100.4"/>
<text text-anchor="start" x="50.2" y="-1112.6" font-family="Arial" font-size="14.00">created_at </text>
<text text-anchor="start" x="120.25" y="-1112.6" font-family="Arial" font-size="14.00" fill="#666666">[timestamp with time zone]</text>
<polygon fill="none" stroke="black" points="43.2,-1069.6 43.2,-1100.4 368.13,-1100.4 368.13,-1069.6 43.2,-1069.6"/>
<text text-anchor="start" x="50.2" y="-1081.8" font-family="Arial" font-size="14.00">updated_at </text>
<text text-anchor="start" x="124.16" y="-1081.8" font-family="Arial" font-size="14.00" fill="#666666">[timestamp with time zone]</text>
</g>
<!-- public.device_attestations&#45;&gt;public.users -->
<g id="edge1" class="edge">
<title>public.device_attestations:user_id&#45;&gt;public.users:id</title>
<path fill="none" stroke="black" d="M378.86,-1482.22C453.19,-1430.7 396.17,-769.66 419.67,-687.6 438.18,-622.94 424.22,-554.4 491.48,-554.4"/>
<polygon fill="black" stroke="black" points="378.95,-1482.19 368.05,-1481.02 373.88,-1483.85 369.77,-1485.19 369.77,-1485.19 369.77,-1485.19 373.88,-1483.85 370.85,-1489.57 378.95,-1482.19"/>
<text text-anchor="start" x="376.13" y="-1495.4" font-family="Arial" font-size="10.00">FOREIGN KEY (user_id) REFERENCES users(id) ON DELETE CASCADE</text>
</g>
<!-- public.compliance_audit_logs -->
<g id="node3" class="node">
<title>public.compliance_audit_logs</title>
<polygon fill="#efefef" stroke="none" points="472.2,-1870.4 472.2,-1906 827.13,-1906 827.13,-1870.4 472.2,-1870.4"/>
<polygon fill="none" stroke="black" points="472.2,-1870.4 472.2,-1906 827.13,-1906 827.13,-1870.4 472.2,-1870.4"/>
<text text-anchor="start" x="479.2" y="-1883.8" font-family="Arial Bold" font-size="18.00">public.compliance_audit_logs</text>
<text text-anchor="start" x="695.65" y="-1883.8" font-family="Arial" font-size="14.00">    </text>
<text text-anchor="start" x="726.76" y="-1883.8" font-family="Arial" font-size="14.00" fill="#666666">[BASE TABLE]</text>
<polygon fill="none" stroke="black" points="472.2,-1839.6 472.2,-1870.4 827.13,-1870.4 827.13,-1839.6 472.2,-1839.6"/>
<text text-anchor="start" x="479.2" y="-1851.8" font-family="Arial" font-size="14.00">id </text>
<text text-anchor="start" x="493.98" y="-1851.8" font-family="Arial" font-size="14.00" fill="#666666">[uuid]</text>
<polygon fill="none" stroke="black" points="472.2,-1808.8 472.2,-1839.6 827.13,-1839.6 827.13,-1808.8 472.2,-1808.8"/>
<text text-anchor="start" x="479.2" y="-1821" font-family="Arial" font-size="14.00">created_at </text>
<text text-anchor="start" x="549.24" y="-1821" font-family="Arial" font-size="14.00" fill="#666666">[timestamp with time zone]</text>
<polygon fill="none" stroke="black" points="472.2,-1778 472.2,-1808.8 827.13,-1808.8 827.13,-1778 472.2,-1778"/>
<text text-anchor="start" x="479.2" y="-1790.2" font-family="Arial" font-size="14.00">updated_at </text>
<text text-anchor="start" x="553.16" y="-1790.2" font-family="Arial" font-size="14.00" fill="#666666">[timestamp with time zone]</text>
<polygon fill="none" stroke="black" points="472.2,-1747.2 472.2,-1778 827.13,-1778 827.13,-1747.2 472.2,-1747.2"/>
<text text-anchor="start" x="479.2" y="-1759.4" font-family="Arial" font-size="14.00">deleted_at </text>
<text text-anchor="start" x="548.48" y="-1759.4" font-family="Arial" font-size="14.00" fill="#666666">[timestamp with time zone]</text>
<polygon fill="none" stroke="black" points="472.2,-1716.4 472.2,-1747.2 827.13,-1747.2 827.13,-1716.4 472.2,-1716.4"/>
<text text-anchor="start" x="479.2" y="-1728.6" font-family="Arial" font-size="14.00">user_id </text>
<text text-anchor="start" x="529" y="-1728.6" font-family="Arial" font-size="14.00" fill="#666666">[uuid]</text>
<polygon fill="none" stroke="black" points="472.2,-1685.6 472.2,-1716.4 827.13,-1716.4 827.13,-1685.6 472.2,-1685.6"/>
<text text-anchor="start" x="479.2" y="-1697.8" font-family="Arial" font-size="14.00">action </text>
<text text-anchor="start" x="520.45" y="-1697.8" font-family="Arial" font-size="14.00" fill="#666666">[varchar(100)]</text>
<polygon fill="none" stroke="black" points="472.2,-1654.8 472.2,-1685.6 827.13,-1685.6 827.13,-1654.8 472.2,-1654.8"/>
<text text-anchor="start" x="479.2" y="-1667" font-family="Arial" font-size="14.00">resource </text>
<text text-anchor="start" x="537.56" y="-1667" font-family="Arial" font-size="14.00" fill="#666666">[varchar(100)]</text>
<polygon fill="none" stroke="black" points="472.2,-1624 472.2,-1654.8 827.13,-1654.8 827.13,-1624 472.2,-1624"/>
<text text-anchor="start" x="479.2" y="-1636.2" font-family="Arial" font-size="14.00">details </text>
<text text-anchor="start" x="523.56" y="-1636.2" font-family="Arial" font-size="14.00" fill="#666666">[jsonb]</text>
<polygon fill="none" stroke="black" points="472.2,-1593.2 472.2,-1624 827.13,-1624 827.13,-1593.2 472.2,-1593.2"/>
<text text-anchor="start" x="479.2" y="-1605.4" font-family="Arial" font-size="14.00">success </text>
<text text-anchor="start" x="533.66" y="-1605.4" font-family="Arial" font-size="14.00" fill="#666666">[boolean]</text>
<polygon fill="none" stroke="black" points="472.2,-1562.4 472.2,-1593.2 827.13,-1593.2 827.13,-1562.4 472.2,-1562.4"/>
<text text-anchor="start" x="479.2" y="-1574.6" font-family="Arial" font-size="14.00">error_msg </text>
<text text-anchor="start" x="546.88" y="-1574.6" font-family="Arial" font-size="14.00" fill="#666666">[varchar(500)]</text>
<polygon fill="none" stroke="black" points="472.2,-1531.6 472.2,-1562.4 827.13,-1562.4 827.13,-1531.6 472.2,-1531.6"/>
<text text-anchor="start" x="479.2" y="-1543.8" font-family="Arial" font-size="14.00">ip_address </text>
<text text-anchor="start" x="551.58" y="-1543.8" font-family="Arial" font-size="14.00" fill="#666666">[varchar(45)]</text>
<polygon fill="none" stroke="black" points="472.2,-1500.8 472.2,-1531.6 827.13,-1531.6 827.13,-1500.8 472.2,-1500.8"/>
<text text-anchor="start" x="479.2" y="-1513" font-family="Arial" font-size="14.00">user_agent </text>
<text text-anchor="start" x="553.14" y="-1513" font-family="Arial" font-size="14.00" fill="#666666">[varchar(500)]</text>
<polygon fill="none" stroke="black" points="472.2,-1470 472.2,-1500.8 827.13,-1500.8 827.13,-1470 472.2,-1470"/>
<text text-anchor="start" x="479.2" y="-1482.2" font-family="Arial" font-size="14.00">request_id </text>
<text text-anchor="start" x="548.47" y="-1482.2" font-family="Arial" font-size="14.00" fill="#666666">[varchar(100)]</text>
<polygon fill="none" stroke="black" points="472.2,-1439.2 472.2,-1470 827.13,-1470 827.13,-1439.2 472.2,-1439.2"/>
<text text-anchor="start" x="479.2" y="-1451.4" font-family="Arial" font-size="14.00">session_id </text>
<text text-anchor="start" x="549.24" y="-1451.4" font-family="Arial" font-size="14.00" fill="#666666">[varchar(100)]</text>
<polygon fill="none" stroke="black" points="472.2,-1408.4 472.2,-1439.2 827.13,-1439.2 827.13,-1408.4 472.2,-1408.4"/>
<text text-anchor="start" x="479.2" y="-1420.6" font-family="Arial" font-size="14.00">tenant_id </text>
<text text-anchor="start" x="540.69" y="-1420.6" font-family="Arial" font-size="14.00" fill="#666666">[varchar(100)]</text>
<polygon fill="none" stroke="black" points="472.2,-1377.6 472.2,-1408.4 827.13,-1408.4 827.13,-1377.6 472.2,-1377.6"/>
<text text-anchor="start" x="479.2" y="-1389.8" font-family="Arial" font-size="14.00">compliance_frameworks </text>
<text text-anchor="start" x="634.03" y="-1389.8" font-family="Arial" font-size="14.00" fill="#666666">[varchar(200)]</text>
<polygon fill="none" stroke="black" points="472.2,-1346.8 472.2,-1377.6 827.13,-1377.6 827.13,-1346.8 472.2,-1346.8"/>
<text text-anchor="start" x="479.2" y="-1359" font-family="Arial" font-size="14.00">data_classification </text>
<text text-anchor="start" x="597.49" y="-1359" font-family="Arial" font-size="14.00" fill="#666666">[varchar(50)]</text>
<polygon fill="none" stroke="black" points="472.2,-1316 472.2,-1346.8 827.13,-1346.8 827.13,-1316 472.2,-1316"/>
<text text-anchor="start" x="479.2" y="-1328.2" font-family="Arial" font-size="14.00">sensitivity_level </text>
<text text-anchor="start" x="580.35" y="-1328.2" font-family="Arial" font-size="14.00" fill="#666666">[integer]</text>
<polygon fill="none" stroke="black" points="472.2,-1285.2 472.2,-1316 827.13,-1316 827.13,-1285.2 472.2,-1285.2"/>
<text text-anchor="start" x="479.2" y="-1297.4" font-family="Arial" font-size="14.00">legal_basis </text>
<text text-anchor="start" x="553.13" y="-1297.4" font-family="Arial" font-size="14.00" fill="#666666">[varchar(50)]</text>
<polygon fill="none" stroke="black" points="472.2,-1254.4 472.2,-1285.2 827.13,-1285.2 827.13,-1254.4 472.2,-1254.4"/>
<text text-anchor="start" x="479.2" y="-1266.6" font-family="Arial" font-size="14.00">data_subjects </text>
<text text-anchor="start" x="569.48" y="-1266.6" font-family="Arial" font-size="14.00" fill="#666666">[jsonb]</text>
<polygon fill="none" stroke="black" points="472.2,-1223.6 472.2,-1254.4 827.13,-1254.4 827.13,-1223.6 472.2,-1223.6"/>
<text text-anchor="start" x="479.2" y="-1235.8" font-family="Arial" font-size="14.00">data_categories </text>
<text text-anchor="start" x="582.71" y="-1235.8" font-family="Arial" font-size="14.00" fill="#666666">[jsonb]</text>
<polygon fill="none" stroke="black" points="472.2,-1192.8 472.2,-1223.6 827.13,-1223.6 827.13,-1192.8 472.2,-1192.8"/>
<text text-anchor="start" x="479.2" y="-1205" font-family="Arial" font-size="14.00">processing_purpose </text>
<text text-anchor="start" x="609.17" y="-1205" font-family="Arial" font-size="14.00" fill="#666666">[varchar(500)]</text>
<polygon fill="none" stroke="black" points="472.2,-1162 472.2,-1192.8 827.13,-1192.8 827.13,-1162 472.2,-1162"/>
<text text-anchor="start" x="479.2" y="-1174.2" font-family="Arial" font-size="14.00">geolocation_country </text>
<text text-anchor="start" x="608.4" y="-1174.2" font-family="Arial" font-size="14.00" fill="#666666">[varchar(10)]</text>
<polygon fill="none" stroke="black" points="472.2,-1131.2 472.2,-1162 827.13,-1162 827.13,-1131.2 472.2,-1131.2"/>
<text text-anchor="start" x="479.2" y="-1143.4" font-family="Arial" font-size="14.00">risk_score </text>
<text text-anchor="start" x="546.88" y="-1143.4" font-family="Arial" font-size="14.00" fill="#666666">[integer]</text>
<polygon fill="none" stroke="black" points="472.2,-1100.4 472.2,-1131.2 827.13,-1131.2 827.13,-1100.4 472.2,-1100.4"/>
<text text-anchor="start" x="479.2" y="-1112.6" font-family="Arial" font-size="14.00">controls_applied </text>
<text text-anchor="start" x="585.04" y="-1112.6" font-family="Arial" font-size="14.00" fill="#666666">[jsonb]</text>
<polygon fill="none" stroke="black" points="472.2,-1069.6 472.2,-1100.4 827.13,-1100.4 827.13,-1069.6 472.2,-1069.6"/>
<text text-anchor="start" x="479.2" y="-1081.8" font-family="Arial" font-size="14.00">approval_required </text>
<text text-anchor="start" x="595.94" y="-1081.8" font-family="Arial" font-size="14.00" fill="#666666">[boolean]</text>
<polygon fill="none" stroke="black" points="472.2,-1038.8 472.2,-1069.6 827.13,-1069.6 827.13,-1038.8 472.2,-1038.8"/>
<text text-anchor="start" x="479.2" y="-1051" font-family="Arial" font-size="14.00">approval_status </text>
<text text-anchor="start" x="581.93" y="-1051" font-family="Arial" font-size="14.00" fill="#666666">[varchar(50)]</text>
<polygon fill="none" stroke="black" points="472.2,-1008 472.2,-1038.8 827.13,-1038.8 827.13,-1008 472.2,-1008"/>
<text text-anchor="start" x="479.2" y="-1020.2" font-family="Arial" font-size="14.00">review_status </text>
<text text-anchor="start" x="568.68" y="-1020.2" font-family="Arial" font-size="14.00" fill="#666666">[varchar(50)]</text>
<polygon fill="none" stroke="black" points="472.2,-977.2 472.2,-1008 827.13,-1008 827.13,-977.2 472.2,-977.2"/>
<text text-anchor="start" x="479.2" y="-989.4" font-family="Arial" font-size="14.00">retention_category </text>
<text text-anchor="start" x="599.05" y="-989.4" font-family="Arial" font-size="14.00" fill="#666666">[varchar(50)]</text>
<polygon fill="none" stroke="black" points="472.2,-946.4 472.2,-977.2 827.13,-977.2 827.13,-946.4 472.2,-946.4"/>
<text text-anchor="start" x="479.2" y="-958.6" font-family="Arial" font-size="14.00">business_justification </text>
<text text-anchor="start" x="615.38" y="-958.6" font-family="Arial" font-size="14.00" fill="#666666">[varchar(1000)]</text>
<polygon fill="none" stroke="black" points="472.2,-915.6 472.2,-946.4 827.13,-946.4 827.13,-915.6 472.2,-915.6"/>
<text text-anchor="start" x="479.2" y="-927.8" font-family="Arial" font-size="14.00">retain_until </text>
<text text-anchor="start" x="551.58" y="-927.8" font-family="Arial" font-size="14.00" fill="#666666">[timestamp with time zone]</text>
<polygon fill="none" stroke="black" points="472.2,-884.8 472.2,-915.6 827.13,-915.6 827.13,-884.8 472.2,-884.8"/>
<text text-anchor="start" x="479.2" y="-897" font-family="Arial" font-size="14.00">archive_date </text>
<text text-anchor="start" x="563.25" y="-897" font-family="Arial" font-size="14.00" fill="#666666">[timestamp with time zone]</text>
<polygon fill="none" stroke="black" points="472.2,-854 472.2,-884.8 827.13,-884.8 827.13,-854 472.2,-854"/>
<text text-anchor="start" x="479.2" y="-866.2" font-family="Arial" font-size="14.00">purge_date </text>
<text text-anchor="start" x="553.93" y="-866.2" font-family="Arial" font-size="14.00" fill="#666666">[timestamp with time zone]</text>
<polygon fill="none" stroke="black" points="472.2,-823.2 472.2,-854 827.13,-854 827.13,-823.2 472.2,-823.2"/>
<text text-anchor="start" x="479.2" y="-835.4" font-family="Arial" font-size="14.00">archived </text>
<text text-anchor="start" x="536" y="-835.4" font-family="Arial" font-size="14.00" fill="#666666">[boolean]</text>
<polygon fill="none" stroke="black" points="472.2,-792.4 472.2,-823.2 827.13,-823.2 827.13,-792.4 472.2,-792.4"/>
<text text-anchor="start" x="479.2" y="-804.6" font-family="Arial" font-size="14.00">archived_at </text>
<text text-anchor="start" x="555.47" y="-804.6" font-family="Arial" font-size="14.00" fill="#666666">[timestamp with time zone]</text>
<polygon fill="none" stroke="black" points="472.2,-761.6 472.2,-792.4 827.13,-792.4 827.13,-761.6 472.2,-761.6"/>
<text text-anchor="start" x="479.2" y="-773.8" font-family="Arial" font-size="14.00">business_context </text>
<text text-anchor="start" x="591.27" y="-773.8" font-family="Arial" font-size="14.00" fill="#666666">[jsonb]</text>
<polygon fill="none" stroke="black" points="472.2,-730.8 472.2,-761.6 827.13,-761.6 827.13,-730.8 472.2,-730.8"/>
<text text-anchor="start" x="479.2" y="-743" font-family="Arial" font-size="14.00">technical_context </text>
<text text-anchor="start" x="591.27" y="-743" font-family="Arial" font-size="14.00" fill="#666666">[jsonb]</text>
</g>
<!-- public.compliance_audit_logs&#45;&gt;public.users -->
<g id="edge2" class="edge">
<title>public.compliance_audit_logs:user_id&#45;&gt;public.users:id</title>
<path fill="none" stroke="black" d="M836.1,-1725.47C891.73,-1632.79 870.46,-554.4 807.85,-554.4"/>
<polygon fill="black" stroke="black" points="836.22,-1725.37 825.59,-1728.07 832.05,-1728.69 828.66,-1731.38 828.66,-1731.38 828.66,-1731.38 832.05,-1728.69 831.2,-1735.11 836.22,-1725.37"/>
<text text-anchor="start" x="835.13" y="-1741.8" font-family="Arial" font-size="10.00">FOREIGN KEY (user_id) REFERENCES users(id)</text>
</g>
<!-- public.consent_records -->
<g id="node4" class="node">
<title>public.consent_records</title>
<polygon fill="#efefef" stroke="none" points="931.2,-1654.8 931.2,-1690.4 1236.13,-1690.4 1236.13,-1654.8 931.2,-1654.8"/>
<polygon fill="none" stroke="black" points="931.2,-1654.8 931.2,-1690.4 1236.13,-1690.4 1236.13,-1654.8 931.2,-1654.8"/>
<text text-anchor="start" x="938.2" y="-1668.2" font-family="Arial Bold" font-size="18.00">public.consent_records</text>
<text text-anchor="start" x="1104.64" y="-1668.2" font-family="Arial" font-size="14.00">    </text>
<text text-anchor="start" x="1135.76" y="-1668.2" font-family="Arial" font-size="14.00" fill="#666666">[BASE TABLE]</text>
<polygon fill="none" stroke="black" points="931.2,-1624 931.2,-1654.8 1236.13,-1654.8 1236.13,-1624 931.2,-1624"/>
<text text-anchor="start" x="938.2" y="-1636.2" font-family="Arial" font-size="14.00">id </text>
<text text-anchor="start" x="952.98" y="-1636.2" font-family="Arial" font-size="14.00" fill="#666666">[uuid]</text>
<polygon fill="none" stroke="black" points="931.2,-1593.2 931.2,-1624 1236.13,-1624 1236.13,-1593.2 931.2,-1593.2"/>
<text text-anchor="start" x="938.2" y="-1605.4" font-family="Arial" font-size="14.00">created_at </text>
<text text-anchor="start" x="1008.25" y="-1605.4" font-family="Arial" font-size="14.00" fill="#666666">[timestamp with time zone]</text>
<polygon fill="none" stroke="black" points="931.2,-1562.4 931.2,-1593.2 1236.13,-1593.2 1236.13,-1562.4 931.2,-1562.4"/>
<text text-anchor="start" x="938.2" y="-1574.6" font-family="Arial" font-size="14.00">updated_at </text>
<text text-anchor="start" x="1012.16" y="-1574.6" font-family="Arial" font-size="14.00" fill="#666666">[timestamp with time zone]</text>
<polygon fill="none" stroke="black" points="931.2,-1531.6 931.2,-1562.4 1236.13,-1562.4 1236.13,-1531.6 931.2,-1531.6"/>
<text text-anchor="start" x="938.2" y="-1543.8" font-family="Arial" font-size="14.00">deleted_at </text>
<text text-anchor="start" x="1007.48" y="-1543.8" font-family="Arial" font-size="14.00" fill="#666666">[timestamp with time zone]</text>
<polygon fill="none" stroke="black" points="931.2,-1500.8 931.2,-1531.6 1236.13,-1531.6 1236.13,-1500.8 931.2,-1500.8"/>
<text text-anchor="start" x="938.2" y="-1513" font-family="Arial" font-size="14.00">data_subject </text>
<text text-anchor="start" x="1021.48" y="-1513" font-family="Arial" font-size="14.00" fill="#666666">[varchar(255)]</text>
<polygon fill="none" stroke="black" points="931.2,-1470 931.2,-1500.8 1236.13,-1500.8 1236.13,-1470 931.2,-1470"/>
<text text-anchor="start" x="938.2" y="-1482.2" font-family="Arial" font-size="14.00">user_id </text>
<text text-anchor="start" x="988" y="-1482.2" font-family="Arial" font-size="14.00" fill="#666666">[uuid]</text>
<polygon fill="none" stroke="black" points="931.2,-1439.2 931.2,-1470 1236.13,-1470 1236.13,-1439.2 931.2,-1439.2"/>
<text text-anchor="start" x="938.2" y="-1451.4" font-family="Arial" font-size="14.00">consent_type </text>
<text text-anchor="start" x="1025.37" y="-1451.4" font-family="Arial" font-size="14.00" fill="#666666">[varchar(100)]</text>
<polygon fill="none" stroke="black" points="931.2,-1408.4 931.2,-1439.2 1236.13,-1439.2 1236.13,-1408.4 931.2,-1408.4"/>
<text text-anchor="start" x="938.2" y="-1420.6" font-family="Arial" font-size="14.00">purpose </text>
<text text-anchor="start" x="992.68" y="-1420.6" font-family="Arial" font-size="14.00" fill="#666666">[varchar(500)]</text>
<polygon fill="none" stroke="black" points="931.2,-1377.6 931.2,-1408.4 1236.13,-1408.4 1236.13,-1377.6 931.2,-1377.6"/>
<text text-anchor="start" x="938.2" y="-1389.8" font-family="Arial" font-size="14.00">legal_basis </text>
<text text-anchor="start" x="1012.14" y="-1389.8" font-family="Arial" font-size="14.00" fill="#666666">[varchar(100)]</text>
<polygon fill="none" stroke="black" points="931.2,-1346.8 931.2,-1377.6 1236.13,-1377.6 1236.13,-1346.8 931.2,-1346.8"/>
<text text-anchor="start" x="938.2" y="-1359" font-family="Arial" font-size="14.00">data_categories </text>
<text text-anchor="start" x="1041.71" y="-1359" font-family="Arial" font-size="14.00" fill="#666666">[jsonb]</text>
<polygon fill="none" stroke="black" points="931.2,-1316 931.2,-1346.8 1236.13,-1346.8 1236.13,-1316 931.2,-1316"/>
<text text-anchor="start" x="938.2" y="-1328.2" font-family="Arial" font-size="14.00">status </text>
<text text-anchor="start" x="979.44" y="-1328.2" font-family="Arial" font-size="14.00" fill="#666666">[varchar(50)]</text>
<polygon fill="none" stroke="black" points="931.2,-1285.2 931.2,-1316 1236.13,-1316 1236.13,-1285.2 931.2,-1285.2"/>
<text text-anchor="start" x="938.2" y="-1297.4" font-family="Arial" font-size="14.00">consent_given </text>
<text text-anchor="start" x="1032.38" y="-1297.4" font-family="Arial" font-size="14.00" fill="#666666">[boolean]</text>
<polygon fill="none" stroke="black" points="931.2,-1254.4 931.2,-1285.2 1236.13,-1285.2 1236.13,-1254.4 931.2,-1254.4"/>
<text text-anchor="start" x="938.2" y="-1266.6" font-family="Arial" font-size="14.00">consent_date </text>
<text text-anchor="start" x="1026.16" y="-1266.6" font-family="Arial" font-size="14.00" fill="#666666">[timestamp with time zone]</text>
<polygon fill="none" stroke="black" points="931.2,-1223.6 931.2,-1254.4 1236.13,-1254.4 1236.13,-1223.6 931.2,-1223.6"/>
<text text-anchor="start" x="938.2" y="-1235.8" font-family="Arial" font-size="14.00">withdrawn_date </text>
<text text-anchor="start" x="1040.15" y="-1235.8" font-family="Arial" font-size="14.00" fill="#666666">[timestamp with time zone]</text>
<polygon fill="none" stroke="black" points="931.2,-1192.8 931.2,-1223.6 1236.13,-1223.6 1236.13,-1192.8 931.2,-1192.8"/>
<text text-anchor="start" x="938.2" y="-1205" font-family="Arial" font-size="14.00">expiry_date </text>
<text text-anchor="start" x="1014.47" y="-1205" font-family="Arial" font-size="14.00" fill="#666666">[timestamp with time zone]</text>
<polygon fill="none" stroke="black" points="931.2,-1162 931.2,-1192.8 1236.13,-1192.8 1236.13,-1162 931.2,-1162"/>
<text text-anchor="start" x="938.2" y="-1174.2" font-family="Arial" font-size="14.00">consent_method </text>
<text text-anchor="start" x="1045.6" y="-1174.2" font-family="Arial" font-size="14.00" fill="#666666">[varchar(100)]</text>
<polygon fill="none" stroke="black" points="931.2,-1131.2 931.2,-1162 1236.13,-1162 1236.13,-1131.2 931.2,-1131.2"/>
<text text-anchor="start" x="938.2" y="-1143.4" font-family="Arial" font-size="14.00">consent_text </text>
<text text-anchor="start" x="1021.47" y="-1143.4" font-family="Arial" font-size="14.00" fill="#666666">[text]</text>
<polygon fill="none" stroke="black" points="931.2,-1100.4 931.2,-1131.2 1236.13,-1131.2 1236.13,-1100.4 931.2,-1100.4"/>
<text text-anchor="start" x="938.2" y="-1112.6" font-family="Arial" font-size="14.00">consent_version </text>
<text text-anchor="start" x="1044.04" y="-1112.6" font-family="Arial" font-size="14.00" fill="#666666">[varchar(20)]</text>
<polygon fill="none" stroke="black" points="931.2,-1069.6 931.2,-1100.4 1236.13,-1100.4 1236.13,-1069.6 931.2,-1069.6"/>
<text text-anchor="start" x="938.2" y="-1081.8" font-family="Arial" font-size="14.00">ip_address </text>
<text text-anchor="start" x="1010.58" y="-1081.8" font-family="Arial" font-size="14.00" fill="#666666">[varchar(45)]</text>
<polygon fill="none" stroke="black" points="931.2,-1038.8 931.2,-1069.6 1236.13,-1069.6 1236.13,-1038.8 931.2,-1038.8"/>
<text text-anchor="start" x="938.2" y="-1051" font-family="Arial" font-size="14.00">user_agent </text>
<text text-anchor="start" x="1012.14" y="-1051" font-family="Arial" font-size="14.00" fill="#666666">[varchar(500)]</text>
<polygon fill="none" stroke="black" points="931.2,-1008 931.2,-1038.8 1236.13,-1038.8 1236.13,-1008 931.2,-1008"/>
<text text-anchor="start" x="938.2" y="-1020.2" font-family="Arial" font-size="14.00">consent_proof </text>
<text text-anchor="start" x="1030.82" y="-1020.2" font-family="Arial" font-size="14.00" fill="#666666">[jsonb]</text>
<polygon fill="none" stroke="black" points="931.2,-977.2 931.2,-1008 1236.13,-1008 1236.13,-977.2 931.2,-977.2"/>
<text text-anchor="start" x="938.2" y="-989.4" font-family="Arial" font-size="14.00">withdrawal_method </text>
<text text-anchor="start" x="1062.71" y="-989.4" font-family="Arial" font-size="14.00" fill="#666666">[varchar(100)]</text>
<polygon fill="none" stroke="black" points="931.2,-946.4 931.2,-977.2 1236.13,-977.2 1236.13,-946.4 931.2,-946.4"/>
<text text-anchor="start" x="938.2" y="-958.6" font-family="Arial" font-size="14.00">withdrawal_reason </text>
<text text-anchor="start" x="1058.82" y="-958.6" font-family="Arial" font-size="14.00" fill="#666666">[varchar(500)]</text>
</g>
<!-- public.consent_records&#45;&gt;public.users -->
<g id="edge3" class="edge">
<title>public.consent_records:user_id&#45;&gt;public.users:id</title>
<path fill="none" stroke="black" d="M920.47,-1482.22C846.14,-1430.7 903.16,-769.66 879.67,-687.6 861.15,-622.94 875.11,-554.4 807.85,-554.4"/>
<polygon fill="black" stroke="black" points="920.37,-1482.19 928.48,-1489.57 925.45,-1483.85 929.56,-1485.19 929.56,-1485.19 929.56,-1485.19 925.45,-1483.85 931.28,-1481.02 920.37,-1482.19"/>
<text text-anchor="start" x="877.85" y="-1469.4" font-family="Arial" font-size="10.00">FOREIGN KEY (user_id) REFERENCES users(id)</text>
</g>
</g>
</svg>
