<?xml version="1.0" encoding="UTF-8" standalone="no"?>
<!DOCTYPE svg PUBLIC "-//W3C//DTD SVG 1.1//EN"
 "http://www.w3.org/Graphics/SVG/1.1/DTD/svg11.dtd">
<!-- Generated by graphviz version 12.1.2 (20240928.0832)
 -->
<!-- Title: public.compliance_audit_logs Pages: 1 -->
<svg width="855pt" height="2608pt"
 viewBox="0.00 0.00 854.52 2608.00" xmlns="http://www.w3.org/2000/svg" xmlns:xlink="http://www.w3.org/1999/xlink">
<g id="graph0" class="graph" transform="scale(1 1) rotate(0) translate(4 2604)">
<title>public.compliance_audit_logs</title>
<polygon fill="white" stroke="none" points="-4,4 -4,-2604 850.52,-2604 850.52,4 -4,4"/>
<!-- public.compliance_audit_logs -->
<g id="node1" class="node">
<title>public.compliance_audit_logs</title>
<polygon fill="#efefef" stroke="none" points="46.2,-1867.4 46.2,-1903 401.14,-1903 401.14,-1867.4 46.2,-1867.4"/>
<polygon fill="none" stroke="black" points="46.2,-1867.4 46.2,-1903 401.14,-1903 401.14,-1867.4 46.2,-1867.4"/>
<text text-anchor="start" x="53.2" y="-1880.8" font-family="Arial Bold" font-size="18.00">public.compliance_audit_logs</text>
<text text-anchor="start" x="269.65" y="-1880.8" font-family="Arial" font-size="14.00">    </text>
<text text-anchor="start" x="300.77" y="-1880.8" font-family="Arial" font-size="14.00" fill="#666666">[BASE TABLE]</text>
<polygon fill="none" stroke="black" points="46.2,-1836.6 46.2,-1867.4 401.14,-1867.4 401.14,-1836.6 46.2,-1836.6"/>
<text text-anchor="start" x="53.2" y="-1848.8" font-family="Arial" font-size="14.00">id </text>
<text text-anchor="start" x="67.99" y="-1848.8" font-family="Arial" font-size="14.00" fill="#666666">[uuid]</text>
<polygon fill="none" stroke="black" points="46.2,-1805.8 46.2,-1836.6 401.14,-1836.6 401.14,-1805.8 46.2,-1805.8"/>
<text text-anchor="start" x="53.2" y="-1818" font-family="Arial" font-size="14.00">created_at </text>
<text text-anchor="start" x="123.25" y="-1818" font-family="Arial" font-size="14.00" fill="#666666">[timestamp with time zone]</text>
<polygon fill="none" stroke="black" points="46.2,-1775 46.2,-1805.8 401.14,-1805.8 401.14,-1775 46.2,-1775"/>
<text text-anchor="start" x="53.2" y="-1787.2" font-family="Arial" font-size="14.00">updated_at </text>
<text text-anchor="start" x="127.16" y="-1787.2" font-family="Arial" font-size="14.00" fill="#666666">[timestamp with time zone]</text>
<polygon fill="none" stroke="black" points="46.2,-1744.2 46.2,-1775 401.14,-1775 401.14,-1744.2 46.2,-1744.2"/>
<text text-anchor="start" x="53.2" y="-1756.4" font-family="Arial" font-size="14.00">deleted_at </text>
<text text-anchor="start" x="122.48" y="-1756.4" font-family="Arial" font-size="14.00" fill="#666666">[timestamp with time zone]</text>
<polygon fill="none" stroke="black" points="46.2,-1713.4 46.2,-1744.2 401.14,-1744.2 401.14,-1713.4 46.2,-1713.4"/>
<text text-anchor="start" x="53.2" y="-1725.6" font-family="Arial" font-size="14.00">user_id </text>
<text text-anchor="start" x="103.01" y="-1725.6" font-family="Arial" font-size="14.00" fill="#666666">[uuid]</text>
<polygon fill="none" stroke="black" points="46.2,-1682.6 46.2,-1713.4 401.14,-1713.4 401.14,-1682.6 46.2,-1682.6"/>
<text text-anchor="start" x="53.2" y="-1694.8" font-family="Arial" font-size="14.00">action </text>
<text text-anchor="start" x="94.45" y="-1694.8" font-family="Arial" font-size="14.00" fill="#666666">[varchar(100)]</text>
<polygon fill="none" stroke="black" points="46.2,-1651.8 46.2,-1682.6 401.14,-1682.6 401.14,-1651.8 46.2,-1651.8"/>
<text text-anchor="start" x="53.2" y="-1664" font-family="Arial" font-size="14.00">resource </text>
<text text-anchor="start" x="111.56" y="-1664" font-family="Arial" font-size="14.00" fill="#666666">[varchar(100)]</text>
<polygon fill="none" stroke="black" points="46.2,-1621 46.2,-1651.8 401.14,-1651.8 401.14,-1621 46.2,-1621"/>
<text text-anchor="start" x="53.2" y="-1633.2" font-family="Arial" font-size="14.00">details </text>
<text text-anchor="start" x="97.56" y="-1633.2" font-family="Arial" font-size="14.00" fill="#666666">[jsonb]</text>
<polygon fill="none" stroke="black" points="46.2,-1590.2 46.2,-1621 401.14,-1621 401.14,-1590.2 46.2,-1590.2"/>
<text text-anchor="start" x="53.2" y="-1602.4" font-family="Arial" font-size="14.00">success </text>
<text text-anchor="start" x="107.66" y="-1602.4" font-family="Arial" font-size="14.00" fill="#666666">[boolean]</text>
<polygon fill="none" stroke="black" points="46.2,-1559.4 46.2,-1590.2 401.14,-1590.2 401.14,-1559.4 46.2,-1559.4"/>
<text text-anchor="start" x="53.2" y="-1571.6" font-family="Arial" font-size="14.00">error_msg </text>
<text text-anchor="start" x="120.88" y="-1571.6" font-family="Arial" font-size="14.00" fill="#666666">[varchar(500)]</text>
<polygon fill="none" stroke="black" points="46.2,-1528.6 46.2,-1559.4 401.14,-1559.4 401.14,-1528.6 46.2,-1528.6"/>
<text text-anchor="start" x="53.2" y="-1540.8" font-family="Arial" font-size="14.00">ip_address </text>
<text text-anchor="start" x="125.58" y="-1540.8" font-family="Arial" font-size="14.00" fill="#666666">[varchar(45)]</text>
<polygon fill="none" stroke="black" points="46.2,-1497.8 46.2,-1528.6 401.14,-1528.6 401.14,-1497.8 46.2,-1497.8"/>
<text text-anchor="start" x="53.2" y="-1510" font-family="Arial" font-size="14.00">user_agent </text>
<text text-anchor="start" x="127.14" y="-1510" font-family="Arial" font-size="14.00" fill="#666666">[varchar(500)]</text>
<polygon fill="none" stroke="black" points="46.2,-1467 46.2,-1497.8 401.14,-1497.8 401.14,-1467 46.2,-1467"/>
<text text-anchor="start" x="53.2" y="-1479.2" font-family="Arial" font-size="14.00">request_id </text>
<text text-anchor="start" x="122.47" y="-1479.2" font-family="Arial" font-size="14.00" fill="#666666">[varchar(100)]</text>
<polygon fill="none" stroke="black" points="46.2,-1436.2 46.2,-1467 401.14,-1467 401.14,-1436.2 46.2,-1436.2"/>
<text text-anchor="start" x="53.2" y="-1448.4" font-family="Arial" font-size="14.00">session_id </text>
<text text-anchor="start" x="123.24" y="-1448.4" font-family="Arial" font-size="14.00" fill="#666666">[varchar(100)]</text>
<polygon fill="none" stroke="black" points="46.2,-1405.4 46.2,-1436.2 401.14,-1436.2 401.14,-1405.4 46.2,-1405.4"/>
<text text-anchor="start" x="53.2" y="-1417.6" font-family="Arial" font-size="14.00">tenant_id </text>
<text text-anchor="start" x="114.7" y="-1417.6" font-family="Arial" font-size="14.00" fill="#666666">[varchar(100)]</text>
<polygon fill="none" stroke="black" points="46.2,-1374.6 46.2,-1405.4 401.14,-1405.4 401.14,-1374.6 46.2,-1374.6"/>
<text text-anchor="start" x="53.2" y="-1386.8" font-family="Arial" font-size="14.00">compliance_frameworks </text>
<text text-anchor="start" x="208.03" y="-1386.8" font-family="Arial" font-size="14.00" fill="#666666">[varchar(200)]</text>
<polygon fill="none" stroke="black" points="46.2,-1343.8 46.2,-1374.6 401.14,-1374.6 401.14,-1343.8 46.2,-1343.8"/>
<text text-anchor="start" x="53.2" y="-1356" font-family="Arial" font-size="14.00">data_classification </text>
<text text-anchor="start" x="171.49" y="-1356" font-family="Arial" font-size="14.00" fill="#666666">[varchar(50)]</text>
<polygon fill="none" stroke="black" points="46.2,-1313 46.2,-1343.8 401.14,-1343.8 401.14,-1313 46.2,-1313"/>
<text text-anchor="start" x="53.2" y="-1325.2" font-family="Arial" font-size="14.00">sensitivity_level </text>
<text text-anchor="start" x="154.35" y="-1325.2" font-family="Arial" font-size="14.00" fill="#666666">[integer]</text>
<polygon fill="none" stroke="black" points="46.2,-1282.2 46.2,-1313 401.14,-1313 401.14,-1282.2 46.2,-1282.2"/>
<text text-anchor="start" x="53.2" y="-1294.4" font-family="Arial" font-size="14.00">legal_basis </text>
<text text-anchor="start" x="127.14" y="-1294.4" font-family="Arial" font-size="14.00" fill="#666666">[varchar(50)]</text>
<polygon fill="none" stroke="black" points="46.2,-1251.4 46.2,-1282.2 401.14,-1282.2 401.14,-1251.4 46.2,-1251.4"/>
<text text-anchor="start" x="53.2" y="-1263.6" font-family="Arial" font-size="14.00">data_subjects </text>
<text text-anchor="start" x="143.48" y="-1263.6" font-family="Arial" font-size="14.00" fill="#666666">[jsonb]</text>
<polygon fill="none" stroke="black" points="46.2,-1220.6 46.2,-1251.4 401.14,-1251.4 401.14,-1220.6 46.2,-1220.6"/>
<text text-anchor="start" x="53.2" y="-1232.8" font-family="Arial" font-size="14.00">data_categories </text>
<text text-anchor="start" x="156.72" y="-1232.8" font-family="Arial" font-size="14.00" fill="#666666">[jsonb]</text>
<polygon fill="none" stroke="black" points="46.2,-1189.8 46.2,-1220.6 401.14,-1220.6 401.14,-1189.8 46.2,-1189.8"/>
<text text-anchor="start" x="53.2" y="-1202" font-family="Arial" font-size="14.00">processing_purpose </text>
<text text-anchor="start" x="183.17" y="-1202" font-family="Arial" font-size="14.00" fill="#666666">[varchar(500)]</text>
<polygon fill="none" stroke="black" points="46.2,-1159 46.2,-1189.8 401.14,-1189.8 401.14,-1159 46.2,-1159"/>
<text text-anchor="start" x="53.2" y="-1171.2" font-family="Arial" font-size="14.00">geolocation_country </text>
<text text-anchor="start" x="182.4" y="-1171.2" font-family="Arial" font-size="14.00" fill="#666666">[varchar(10)]</text>
<polygon fill="none" stroke="black" points="46.2,-1128.2 46.2,-1159 401.14,-1159 401.14,-1128.2 46.2,-1128.2"/>
<text text-anchor="start" x="53.2" y="-1140.4" font-family="Arial" font-size="14.00">risk_score </text>
<text text-anchor="start" x="120.88" y="-1140.4" font-family="Arial" font-size="14.00" fill="#666666">[integer]</text>
<polygon fill="none" stroke="black" points="46.2,-1097.4 46.2,-1128.2 401.14,-1128.2 401.14,-1097.4 46.2,-1097.4"/>
<text text-anchor="start" x="53.2" y="-1109.6" font-family="Arial" font-size="14.00">controls_applied </text>
<text text-anchor="start" x="159.05" y="-1109.6" font-family="Arial" font-size="14.00" fill="#666666">[jsonb]</text>
<polygon fill="none" stroke="black" points="46.2,-1066.6 46.2,-1097.4 401.14,-1097.4 401.14,-1066.6 46.2,-1066.6"/>
<text text-anchor="start" x="53.2" y="-1078.8" font-family="Arial" font-size="14.00">approval_required </text>
<text text-anchor="start" x="169.94" y="-1078.8" font-family="Arial" font-size="14.00" fill="#666666">[boolean]</text>
<polygon fill="none" stroke="black" points="46.2,-1035.8 46.2,-1066.6 401.14,-1066.6 401.14,-1035.8 46.2,-1035.8"/>
<text text-anchor="start" x="53.2" y="-1048" font-family="Arial" font-size="14.00">approval_status </text>
<text text-anchor="start" x="155.93" y="-1048" font-family="Arial" font-size="14.00" fill="#666666">[varchar(50)]</text>
<polygon fill="none" stroke="black" points="46.2,-1005 46.2,-1035.8 401.14,-1035.8 401.14,-1005 46.2,-1005"/>
<text text-anchor="start" x="53.2" y="-1017.2" font-family="Arial" font-size="14.00">review_status </text>
<text text-anchor="start" x="142.68" y="-1017.2" font-family="Arial" font-size="14.00" fill="#666666">[varchar(50)]</text>
<polygon fill="none" stroke="black" points="46.2,-974.2 46.2,-1005 401.14,-1005 401.14,-974.2 46.2,-974.2"/>
<text text-anchor="start" x="53.2" y="-986.4" font-family="Arial" font-size="14.00">retention_category </text>
<text text-anchor="start" x="173.05" y="-986.4" font-family="Arial" font-size="14.00" fill="#666666">[varchar(50)]</text>
<polygon fill="none" stroke="black" points="46.2,-943.4 46.2,-974.2 401.14,-974.2 401.14,-943.4 46.2,-943.4"/>
<text text-anchor="start" x="53.2" y="-955.6" font-family="Arial" font-size="14.00">business_justification </text>
<text text-anchor="start" x="189.39" y="-955.6" font-family="Arial" font-size="14.00" fill="#666666">[varchar(1000)]</text>
<polygon fill="none" stroke="black" points="46.2,-912.6 46.2,-943.4 401.14,-943.4 401.14,-912.6 46.2,-912.6"/>
<text text-anchor="start" x="53.2" y="-924.8" font-family="Arial" font-size="14.00">retain_until </text>
<text text-anchor="start" x="125.58" y="-924.8" font-family="Arial" font-size="14.00" fill="#666666">[timestamp with time zone]</text>
<polygon fill="none" stroke="black" points="46.2,-881.8 46.2,-912.6 401.14,-912.6 401.14,-881.8 46.2,-881.8"/>
<text text-anchor="start" x="53.2" y="-894" font-family="Arial" font-size="14.00">archive_date </text>
<text text-anchor="start" x="137.25" y="-894" font-family="Arial" font-size="14.00" fill="#666666">[timestamp with time zone]</text>
<polygon fill="none" stroke="black" points="46.2,-851 46.2,-881.8 401.14,-881.8 401.14,-851 46.2,-851"/>
<text text-anchor="start" x="53.2" y="-863.2" font-family="Arial" font-size="14.00">purge_date </text>
<text text-anchor="start" x="127.93" y="-863.2" font-family="Arial" font-size="14.00" fill="#666666">[timestamp with time zone]</text>
<polygon fill="none" stroke="black" points="46.2,-820.2 46.2,-851 401.14,-851 401.14,-820.2 46.2,-820.2"/>
<text text-anchor="start" x="53.2" y="-832.4" font-family="Arial" font-size="14.00">archived </text>
<text text-anchor="start" x="110.01" y="-832.4" font-family="Arial" font-size="14.00" fill="#666666">[boolean]</text>
<polygon fill="none" stroke="black" points="46.2,-789.4 46.2,-820.2 401.14,-820.2 401.14,-789.4 46.2,-789.4"/>
<text text-anchor="start" x="53.2" y="-801.6" font-family="Arial" font-size="14.00">archived_at </text>
<text text-anchor="start" x="129.47" y="-801.6" font-family="Arial" font-size="14.00" fill="#666666">[timestamp with time zone]</text>
<polygon fill="none" stroke="black" points="46.2,-758.6 46.2,-789.4 401.14,-789.4 401.14,-758.6 46.2,-758.6"/>
<text text-anchor="start" x="53.2" y="-770.8" font-family="Arial" font-size="14.00">business_context </text>
<text text-anchor="start" x="165.27" y="-770.8" font-family="Arial" font-size="14.00" fill="#666666">[jsonb]</text>
<polygon fill="none" stroke="black" points="46.2,-727.8 46.2,-758.6 401.14,-758.6 401.14,-727.8 46.2,-727.8"/>
<text text-anchor="start" x="53.2" y="-740" font-family="Arial" font-size="14.00">technical_context </text>
<text text-anchor="start" x="165.27" y="-740" font-family="Arial" font-size="14.00" fill="#666666">[jsonb]</text>
<polygon fill="none" stroke="black" stroke-width="3" points="44.7,-726.3 44.7,-1904.5 402.64,-1904.5 402.64,-726.3 44.7,-726.3"/>
</g>
<!-- public.users -->
<g id="node3" class="node">
<title>public.users</title>
<polygon fill="#efefef" stroke="none" points="66.48,-566.8 66.48,-602.4 380.85,-602.4 380.85,-566.8 66.48,-566.8"/>
<polygon fill="none" stroke="black" points="66.48,-566.8 66.48,-602.4 380.85,-602.4 380.85,-566.8 66.48,-566.8"/>
<text text-anchor="start" x="118.18" y="-580.2" font-family="Arial Bold" font-size="18.00">public.users</text>
<text text-anchor="start" x="204.67" y="-580.2" font-family="Arial" font-size="14.00">    </text>
<text text-anchor="start" x="235.78" y="-580.2" font-family="Arial" font-size="14.00" fill="#666666">[BASE TABLE]</text>
<polygon fill="none" stroke="black" points="66.48,-536 66.48,-566.8 380.85,-566.8 380.85,-536 66.48,-536"/>
<text text-anchor="start" x="73.48" y="-548.2" font-family="Arial" font-size="14.00">id </text>
<text text-anchor="start" x="88.27" y="-548.2" font-family="Arial" font-size="14.00" fill="#666666">[uuid]</text>
<polygon fill="none" stroke="black" points="66.48,-505.2 66.48,-536 380.85,-536 380.85,-505.2 66.48,-505.2"/>
<text text-anchor="start" x="73.48" y="-517.4" font-family="Arial" font-size="14.00">username </text>
<text text-anchor="start" x="139.63" y="-517.4" font-family="Arial" font-size="14.00" fill="#666666">[varchar(50)]</text>
<polygon fill="none" stroke="black" points="66.48,-474.4 66.48,-505.2 380.85,-505.2 380.85,-474.4 66.48,-474.4"/>
<text text-anchor="start" x="73.48" y="-486.6" font-family="Arial" font-size="14.00">email </text>
<text text-anchor="start" x="110.83" y="-486.6" font-family="Arial" font-size="14.00" fill="#666666">[varchar(100)]</text>
<polygon fill="none" stroke="black" points="66.48,-443.6 66.48,-474.4 380.85,-474.4 380.85,-443.6 66.48,-443.6"/>
<text text-anchor="start" x="73.48" y="-455.8" font-family="Arial" font-size="14.00">password_hash </text>
<text text-anchor="start" x="175.43" y="-455.8" font-family="Arial" font-size="14.00" fill="#666666">[varchar(255)]</text>
<polygon fill="none" stroke="black" points="66.48,-412.8 66.48,-443.6 380.85,-443.6 380.85,-412.8 66.48,-412.8"/>
<text text-anchor="start" x="73.48" y="-425" font-family="Arial" font-size="14.00">first_name </text>
<text text-anchor="start" x="142.73" y="-425" font-family="Arial" font-size="14.00" fill="#666666">[varchar(50)]</text>
<polygon fill="none" stroke="black" points="66.48,-382 66.48,-412.8 380.85,-412.8 380.85,-382 66.48,-382"/>
<text text-anchor="start" x="73.48" y="-394.2" font-family="Arial" font-size="14.00">last_name </text>
<text text-anchor="start" x="141.97" y="-394.2" font-family="Arial" font-size="14.00" fill="#666666">[varchar(50)]</text>
<polygon fill="none" stroke="black" points="66.48,-351.2 66.48,-382 380.85,-382 380.85,-351.2 66.48,-351.2"/>
<text text-anchor="start" x="73.48" y="-363.4" font-family="Arial" font-size="14.00">is_active </text>
<text text-anchor="start" x="131.84" y="-363.4" font-family="Arial" font-size="14.00" fill="#666666">[boolean]</text>
<polygon fill="none" stroke="black" points="66.48,-320.4 66.48,-351.2 380.85,-351.2 380.85,-320.4 66.48,-320.4"/>
<text text-anchor="start" x="73.48" y="-332.6" font-family="Arial" font-size="14.00">is_admin </text>
<text text-anchor="start" x="133.4" y="-332.6" font-family="Arial" font-size="14.00" fill="#666666">[boolean]</text>
<polygon fill="none" stroke="black" points="66.48,-289.6 66.48,-320.4 380.85,-320.4 380.85,-289.6 66.48,-289.6"/>
<text text-anchor="start" x="73.48" y="-301.8" font-family="Arial" font-size="14.00">failed_login_attempts </text>
<text text-anchor="start" x="209.68" y="-301.8" font-family="Arial" font-size="14.00" fill="#666666">[integer]</text>
<polygon fill="none" stroke="black" points="66.48,-258.8 66.48,-289.6 380.85,-289.6 380.85,-258.8 66.48,-258.8"/>
<text text-anchor="start" x="73.48" y="-271" font-family="Arial" font-size="14.00">last_failed_login_at </text>
<text text-anchor="start" x="197.24" y="-271" font-family="Arial" font-size="14.00" fill="#666666">[timestamp with time zone]</text>
<polygon fill="none" stroke="black" points="66.48,-228 66.48,-258.8 380.85,-258.8 380.85,-228 66.48,-228"/>
<text text-anchor="start" x="73.48" y="-240.2" font-family="Arial" font-size="14.00">account_locked_at </text>
<text text-anchor="start" x="194.12" y="-240.2" font-family="Arial" font-size="14.00" fill="#666666">[timestamp with time zone]</text>
<polygon fill="none" stroke="black" points="66.48,-197.2 66.48,-228 380.85,-228 380.85,-197.2 66.48,-197.2"/>
<text text-anchor="start" x="73.48" y="-209.4" font-family="Arial" font-size="14.00">account_locked_until </text>
<text text-anchor="start" x="208.13" y="-209.4" font-family="Arial" font-size="14.00" fill="#666666">[timestamp with time zone]</text>
<polygon fill="none" stroke="black" points="66.48,-166.4 66.48,-197.2 380.85,-197.2 380.85,-166.4 66.48,-166.4"/>
<text text-anchor="start" x="73.48" y="-178.6" font-family="Arial" font-size="14.00">last_login_at </text>
<text text-anchor="start" x="155.99" y="-178.6" font-family="Arial" font-size="14.00" fill="#666666">[timestamp with time zone]</text>
<polygon fill="none" stroke="black" points="66.48,-135.6 66.48,-166.4 380.85,-166.4 380.85,-135.6 66.48,-135.6"/>
<text text-anchor="start" x="73.48" y="-147.8" font-family="Arial" font-size="14.00">last_login_ip </text>
<text text-anchor="start" x="155.21" y="-147.8" font-family="Arial" font-size="14.00" fill="#666666">[varchar(45)]</text>
<polygon fill="none" stroke="black" points="66.48,-104.8 66.48,-135.6 380.85,-135.6 380.85,-104.8 66.48,-104.8"/>
<text text-anchor="start" x="73.48" y="-117" font-family="Arial" font-size="14.00">created_at </text>
<text text-anchor="start" x="143.53" y="-117" font-family="Arial" font-size="14.00" fill="#666666">[timestamp with time zone]</text>
<polygon fill="none" stroke="black" points="66.48,-74 66.48,-104.8 380.85,-104.8 380.85,-74 66.48,-74"/>
<text text-anchor="start" x="73.48" y="-86.2" font-family="Arial" font-size="14.00">updated_at </text>
<text text-anchor="start" x="147.44" y="-86.2" font-family="Arial" font-size="14.00" fill="#666666">[timestamp with time zone]</text>
<polygon fill="none" stroke="black" points="66.48,-43.2 66.48,-74 380.85,-74 380.85,-43.2 66.48,-43.2"/>
<text text-anchor="start" x="73.48" y="-55.4" font-family="Arial" font-size="14.00">deleted_at </text>
<text text-anchor="start" x="142.77" y="-55.4" font-family="Arial" font-size="14.00" fill="#666666">[timestamp with time zone]</text>
</g>
<!-- public.compliance_audit_logs&#45;&gt;public.users -->
<g id="edge2" class="edge">
<title>public.compliance_audit_logs:user_id&#45;&gt;public.users:id</title>
<path fill="none" stroke="black" d="M410.1,-1722.47C465.73,-1629.79 444.46,-551.4 381.85,-551.4"/>
<polygon fill="black" stroke="black" points="410.22,-1722.37 399.6,-1725.07 406.05,-1725.69 402.66,-1728.38 402.66,-1728.38 402.66,-1728.38 406.05,-1725.69 405.2,-1732.11 410.22,-1722.37"/>
<text text-anchor="start" x="409.14" y="-1738.8" font-family="Arial" font-size="10.00">FOREIGN KEY (user_id) REFERENCES users(id)</text>
</g>
<!-- public.compliance_violations -->
<g id="node2" class="node">
<title>public.compliance_violations</title>
<polygon fill="#efefef" stroke="none" points="48.2,-2521.2 48.2,-2556.8 399.14,-2556.8 399.14,-2521.2 48.2,-2521.2"/>
<polygon fill="none" stroke="black" points="48.2,-2521.2 48.2,-2556.8 399.14,-2556.8 399.14,-2521.2 48.2,-2521.2"/>
<text text-anchor="start" x="55.2" y="-2534.6" font-family="Arial Bold" font-size="18.00">public.compliance_violations</text>
<text text-anchor="start" x="267.65" y="-2534.6" font-family="Arial" font-size="14.00">    </text>
<text text-anchor="start" x="298.77" y="-2534.6" font-family="Arial" font-size="14.00" fill="#666666">[BASE TABLE]</text>
<polygon fill="none" stroke="black" points="48.2,-2490.4 48.2,-2521.2 399.14,-2521.2 399.14,-2490.4 48.2,-2490.4"/>
<text text-anchor="start" x="55.2" y="-2502.6" font-family="Arial" font-size="14.00">id </text>
<text text-anchor="start" x="69.99" y="-2502.6" font-family="Arial" font-size="14.00" fill="#666666">[uuid]</text>
<polygon fill="none" stroke="black" points="48.2,-2459.6 48.2,-2490.4 399.14,-2490.4 399.14,-2459.6 48.2,-2459.6"/>
<text text-anchor="start" x="55.2" y="-2471.8" font-family="Arial" font-size="14.00">created_at </text>
<text text-anchor="start" x="125.25" y="-2471.8" font-family="Arial" font-size="14.00" fill="#666666">[timestamp with time zone]</text>
<polygon fill="none" stroke="black" points="48.2,-2428.8 48.2,-2459.6 399.14,-2459.6 399.14,-2428.8 48.2,-2428.8"/>
<text text-anchor="start" x="55.2" y="-2441" font-family="Arial" font-size="14.00">updated_at </text>
<text text-anchor="start" x="129.16" y="-2441" font-family="Arial" font-size="14.00" fill="#666666">[timestamp with time zone]</text>
<polygon fill="none" stroke="black" points="48.2,-2398 48.2,-2428.8 399.14,-2428.8 399.14,-2398 48.2,-2398"/>
<text text-anchor="start" x="55.2" y="-2410.2" font-family="Arial" font-size="14.00">deleted_at </text>
<text text-anchor="start" x="124.48" y="-2410.2" font-family="Arial" font-size="14.00" fill="#666666">[timestamp with time zone]</text>
<polygon fill="none" stroke="black" points="48.2,-2367.2 48.2,-2398 399.14,-2398 399.14,-2367.2 48.2,-2367.2"/>
<text text-anchor="start" x="55.2" y="-2379.4" font-family="Arial" font-size="14.00">audit_log_id </text>
<text text-anchor="start" x="134.6" y="-2379.4" font-family="Arial" font-size="14.00" fill="#666666">[uuid]</text>
<polygon fill="none" stroke="black" points="48.2,-2336.4 48.2,-2367.2 399.14,-2367.2 399.14,-2336.4 48.2,-2336.4"/>
<text text-anchor="start" x="55.2" y="-2348.6" font-family="Arial" font-size="14.00">violation_type </text>
<text text-anchor="start" x="144.7" y="-2348.6" font-family="Arial" font-size="14.00" fill="#666666">[varchar(100)]</text>
<polygon fill="none" stroke="black" points="48.2,-2305.6 48.2,-2336.4 399.14,-2336.4 399.14,-2305.6 48.2,-2305.6"/>
<text text-anchor="start" x="55.2" y="-2317.8" font-family="Arial" font-size="14.00">framework </text>
<text text-anchor="start" x="124.43" y="-2317.8" font-family="Arial" font-size="14.00" fill="#666666">[varchar(50)]</text>
<polygon fill="none" stroke="black" points="48.2,-2274.8 48.2,-2305.6 399.14,-2305.6 399.14,-2274.8 48.2,-2274.8"/>
<text text-anchor="start" x="55.2" y="-2287" font-family="Arial" font-size="14.00">severity </text>
<text text-anchor="start" x="107.32" y="-2287" font-family="Arial" font-size="14.00" fill="#666666">[integer]</text>
<polygon fill="none" stroke="black" points="48.2,-2244 48.2,-2274.8 399.14,-2274.8 399.14,-2244 48.2,-2244"/>
<text text-anchor="start" x="55.2" y="-2256.2" font-family="Arial" font-size="14.00">description </text>
<text text-anchor="start" x="126.79" y="-2256.2" font-family="Arial" font-size="14.00" fill="#666666">[varchar(1000)]</text>
<polygon fill="none" stroke="black" points="48.2,-2213.2 48.2,-2244 399.14,-2244 399.14,-2213.2 48.2,-2213.2"/>
<text text-anchor="start" x="55.2" y="-2225.4" font-family="Arial" font-size="14.00">remediation </text>
<text text-anchor="start" x="132.24" y="-2225.4" font-family="Arial" font-size="14.00" fill="#666666">[varchar(1000)]</text>
<polygon fill="none" stroke="black" points="48.2,-2182.4 48.2,-2213.2 399.14,-2213.2 399.14,-2182.4 48.2,-2182.4"/>
<text text-anchor="start" x="55.2" y="-2194.6" font-family="Arial" font-size="14.00">risk_score </text>
<text text-anchor="start" x="122.88" y="-2194.6" font-family="Arial" font-size="14.00" fill="#666666">[integer]</text>
<polygon fill="none" stroke="black" points="48.2,-2151.6 48.2,-2182.4 399.14,-2182.4 399.14,-2151.6 48.2,-2151.6"/>
<text text-anchor="start" x="55.2" y="-2163.8" font-family="Arial" font-size="14.00">status </text>
<text text-anchor="start" x="96.44" y="-2163.8" font-family="Arial" font-size="14.00" fill="#666666">[varchar(50)]</text>
<polygon fill="none" stroke="black" points="48.2,-2120.8 48.2,-2151.6 399.14,-2151.6 399.14,-2120.8 48.2,-2120.8"/>
<text text-anchor="start" x="55.2" y="-2133" font-family="Arial" font-size="14.00">assigned_to </text>
<text text-anchor="start" x="134.59" y="-2133" font-family="Arial" font-size="14.00" fill="#666666">[varchar(100)]</text>
<polygon fill="none" stroke="black" points="48.2,-2090 48.2,-2120.8 399.14,-2120.8 399.14,-2090 48.2,-2090"/>
<text text-anchor="start" x="55.2" y="-2102.2" font-family="Arial" font-size="14.00">resolved_at </text>
<text text-anchor="start" x="131.47" y="-2102.2" font-family="Arial" font-size="14.00" fill="#666666">[timestamp with time zone]</text>
<polygon fill="none" stroke="black" points="48.2,-2059.2 48.2,-2090 399.14,-2090 399.14,-2059.2 48.2,-2059.2"/>
<text text-anchor="start" x="55.2" y="-2071.4" font-family="Arial" font-size="14.00">resolution </text>
<text text-anchor="start" x="119.79" y="-2071.4" font-family="Arial" font-size="14.00" fill="#666666">[varchar(1000)]</text>
<polygon fill="none" stroke="black" points="48.2,-2028.4 48.2,-2059.2 399.14,-2059.2 399.14,-2028.4 48.2,-2028.4"/>
<text text-anchor="start" x="55.2" y="-2040.6" font-family="Arial" font-size="14.00">resolution_by </text>
<text text-anchor="start" x="142.36" y="-2040.6" font-family="Arial" font-size="14.00" fill="#666666">[varchar(100)]</text>
</g>
<!-- public.compliance_violations&#45;&gt;public.compliance_audit_logs -->
<g id="edge1" class="edge">
<title>public.compliance_violations:audit_log_id&#45;&gt;public.compliance_audit_logs:id</title>
<path fill="none" stroke="black" d="M410.2,-2381.26C518.06,-2351.97 516.59,-1852 402.14,-1852"/>
<polygon fill="black" stroke="black" points="410.38,-2381.24 399.88,-2378.1 405.09,-2381.94 400.8,-2382.51 400.8,-2382.51 400.8,-2382.51 405.09,-2381.94 401.06,-2387.02 410.38,-2381.24"/>
<text text-anchor="start" x="407.14" y="-2392.6" font-family="Arial" font-size="10.00">FOREIGN KEY (audit_log_id) REFERENCES compliance_audit_logs(id) ON DELETE CASCADE</text>
</g>
</g>
</svg>
