<?xml version="1.0" encoding="UTF-8" standalone="no"?>
<!DOCTYPE svg PUBLIC "-//W3C//DTD SVG 1.1//EN"
 "http://www.w3.org/Graphics/SVG/1.1/DTD/svg11.dtd">
<!-- Generated by graphviz version 12.1.2 (20240928.0832)
 -->
<!-- Title: public.login_attempts Pages: 1 -->
<svg width="395pt" height="475pt"
 viewBox="0.00 0.00 395.37 474.80" xmlns="http://www.w3.org/2000/svg" xmlns:xlink="http://www.w3.org/1999/xlink">
<g id="graph0" class="graph" transform="scale(1 1) rotate(0) translate(4 470.8)">
<title>public.login_attempts</title>
<polygon fill="white" stroke="none" points="-4,4 -4,-470.8 391.37,-470.8 391.37,4 -4,4"/>
<!-- public.login_attempts -->
<g id="node1" class="node">
<title>public.login_attempts</title>
<polygon fill="#efefef" stroke="none" points="46.2,-385 46.2,-420.6 341.17,-420.6 341.17,-385 46.2,-385"/>
<polygon fill="none" stroke="black" points="46.2,-385 46.2,-420.6 341.17,-420.6 341.17,-385 46.2,-385"/>
<text text-anchor="start" x="53.2" y="-398.4" font-family="Arial Bold" font-size="18.00">public.login_attempts</text>
<text text-anchor="start" x="209.68" y="-398.4" font-family="Arial" font-size="14.00">    </text>
<text text-anchor="start" x="240.8" y="-398.4" font-family="Arial" font-size="14.00" fill="#666666">[BASE TABLE]</text>
<polygon fill="none" stroke="black" points="46.2,-354.2 46.2,-385 341.17,-385 341.17,-354.2 46.2,-354.2"/>
<text text-anchor="start" x="53.2" y="-366.4" font-family="Arial" font-size="14.00">id </text>
<text text-anchor="start" x="67.99" y="-366.4" font-family="Arial" font-size="14.00" fill="#666666">[uuid]</text>
<polygon fill="none" stroke="black" points="46.2,-323.4 46.2,-354.2 341.17,-354.2 341.17,-323.4 46.2,-323.4"/>
<text text-anchor="start" x="53.2" y="-335.6" font-family="Arial" font-size="14.00">username </text>
<text text-anchor="start" x="119.34" y="-335.6" font-family="Arial" font-size="14.00" fill="#666666">[varchar(50)]</text>
<polygon fill="none" stroke="black" points="46.2,-292.6 46.2,-323.4 341.17,-323.4 341.17,-292.6 46.2,-292.6"/>
<text text-anchor="start" x="53.2" y="-304.8" font-family="Arial" font-size="14.00">user_id </text>
<text text-anchor="start" x="103.01" y="-304.8" font-family="Arial" font-size="14.00" fill="#666666">[uuid]</text>
<polygon fill="none" stroke="black" points="46.2,-261.8 46.2,-292.6 341.17,-292.6 341.17,-261.8 46.2,-261.8"/>
<text text-anchor="start" x="53.2" y="-274" font-family="Arial" font-size="14.00">ip_address </text>
<text text-anchor="start" x="125.58" y="-274" font-family="Arial" font-size="14.00" fill="#666666">[varchar(45)]</text>
<polygon fill="none" stroke="black" points="46.2,-231 46.2,-261.8 341.17,-261.8 341.17,-231 46.2,-231"/>
<text text-anchor="start" x="53.2" y="-243.2" font-family="Arial" font-size="14.00">user_agent </text>
<text text-anchor="start" x="127.14" y="-243.2" font-family="Arial" font-size="14.00" fill="#666666">[varchar(500)]</text>
<polygon fill="none" stroke="black" points="46.2,-200.2 46.2,-231 341.17,-231 341.17,-200.2 46.2,-200.2"/>
<text text-anchor="start" x="53.2" y="-212.4" font-family="Arial" font-size="14.00">success </text>
<text text-anchor="start" x="107.66" y="-212.4" font-family="Arial" font-size="14.00" fill="#666666">[boolean]</text>
<polygon fill="none" stroke="black" points="46.2,-169.4 46.2,-200.2 341.17,-200.2 341.17,-169.4 46.2,-169.4"/>
<text text-anchor="start" x="53.2" y="-181.6" font-family="Arial" font-size="14.00">failure_reason </text>
<text text-anchor="start" x="145.81" y="-181.6" font-family="Arial" font-size="14.00" fill="#666666">[varchar(200)]</text>
<polygon fill="none" stroke="black" points="46.2,-138.6 46.2,-169.4 341.17,-169.4 341.17,-138.6 46.2,-138.6"/>
<text text-anchor="start" x="53.2" y="-150.8" font-family="Arial" font-size="14.00">is_suspicious </text>
<text text-anchor="start" x="140.35" y="-150.8" font-family="Arial" font-size="14.00" fill="#666666">[boolean]</text>
<polygon fill="none" stroke="black" points="46.2,-107.8 46.2,-138.6 341.17,-138.6 341.17,-107.8 46.2,-107.8"/>
<text text-anchor="start" x="53.2" y="-120" font-family="Arial" font-size="14.00">blocked_by_rate </text>
<text text-anchor="start" x="159.83" y="-120" font-family="Arial" font-size="14.00" fill="#666666">[boolean]</text>
<polygon fill="none" stroke="black" points="46.2,-77 46.2,-107.8 341.17,-107.8 341.17,-77 46.2,-77"/>
<text text-anchor="start" x="53.2" y="-89.2" font-family="Arial" font-size="14.00">request_id </text>
<text text-anchor="start" x="122.47" y="-89.2" font-family="Arial" font-size="14.00" fill="#666666">[varchar(100)]</text>
<polygon fill="none" stroke="black" points="46.2,-46.2 46.2,-77 341.17,-77 341.17,-46.2 46.2,-46.2"/>
<text text-anchor="start" x="53.2" y="-58.4" font-family="Arial" font-size="14.00">created_at </text>
<text text-anchor="start" x="123.25" y="-58.4" font-family="Arial" font-size="14.00" fill="#666666">[timestamp with time zone]</text>
<polygon fill="none" stroke="black" stroke-width="3" points="44.7,-44.7 44.7,-422.1 342.67,-422.1 342.67,-44.7 44.7,-44.7"/>
</g>
</g>
</svg>
