<?xml version="1.0" encoding="UTF-8" standalone="no"?>
<!DOCTYPE svg PUBLIC "-//W3C//DTD SVG 1.1//EN"
 "http://www.w3.org/Graphics/SVG/1.1/DTD/svg11.dtd">
<!-- Generated by graphviz version 12.1.2 (20240928.0832)
 -->
<!-- Title: public.compliance_violations Pages: 1 -->
<svg width="853pt" height="1926pt"
 viewBox="0.00 0.00 852.52 1926.40" xmlns="http://www.w3.org/2000/svg" xmlns:xlink="http://www.w3.org/1999/xlink">
<g id="graph0" class="graph" transform="scale(1 1) rotate(0) translate(4 1922.4)">
<title>public.compliance_violations</title>
<polygon fill="white" stroke="none" points="-4,4 -4,-1922.4 848.52,-1922.4 848.52,4 -4,4"/>
<!-- public.compliance_violations -->
<g id="node1" class="node">
<title>public.compliance_violations</title>
<polygon fill="#efefef" stroke="none" points="46.2,-1836.6 46.2,-1872.2 397.14,-1872.2 397.14,-1836.6 46.2,-1836.6"/>
<polygon fill="none" stroke="black" points="46.2,-1836.6 46.2,-1872.2 397.14,-1872.2 397.14,-1836.6 46.2,-1836.6"/>
<text text-anchor="start" x="53.2" y="-1850" font-family="Arial Bold" font-size="18.00">public.compliance_violations</text>
<text text-anchor="start" x="265.65" y="-1850" font-family="Arial" font-size="14.00">    </text>
<text text-anchor="start" x="296.77" y="-1850" font-family="Arial" font-size="14.00" fill="#666666">[BASE TABLE]</text>
<polygon fill="none" stroke="black" points="46.2,-1805.8 46.2,-1836.6 397.14,-1836.6 397.14,-1805.8 46.2,-1805.8"/>
<text text-anchor="start" x="53.2" y="-1818" font-family="Arial" font-size="14.00">id </text>
<text text-anchor="start" x="67.99" y="-1818" font-family="Arial" font-size="14.00" fill="#666666">[uuid]</text>
<polygon fill="none" stroke="black" points="46.2,-1775 46.2,-1805.8 397.14,-1805.8 397.14,-1775 46.2,-1775"/>
<text text-anchor="start" x="53.2" y="-1787.2" font-family="Arial" font-size="14.00">created_at </text>
<text text-anchor="start" x="123.25" y="-1787.2" font-family="Arial" font-size="14.00" fill="#666666">[timestamp with time zone]</text>
<polygon fill="none" stroke="black" points="46.2,-1744.2 46.2,-1775 397.14,-1775 397.14,-1744.2 46.2,-1744.2"/>
<text text-anchor="start" x="53.2" y="-1756.4" font-family="Arial" font-size="14.00">updated_at </text>
<text text-anchor="start" x="127.16" y="-1756.4" font-family="Arial" font-size="14.00" fill="#666666">[timestamp with time zone]</text>
<polygon fill="none" stroke="black" points="46.2,-1713.4 46.2,-1744.2 397.14,-1744.2 397.14,-1713.4 46.2,-1713.4"/>
<text text-anchor="start" x="53.2" y="-1725.6" font-family="Arial" font-size="14.00">deleted_at </text>
<text text-anchor="start" x="122.48" y="-1725.6" font-family="Arial" font-size="14.00" fill="#666666">[timestamp with time zone]</text>
<polygon fill="none" stroke="black" points="46.2,-1682.6 46.2,-1713.4 397.14,-1713.4 397.14,-1682.6 46.2,-1682.6"/>
<text text-anchor="start" x="53.2" y="-1694.8" font-family="Arial" font-size="14.00">audit_log_id </text>
<text text-anchor="start" x="132.6" y="-1694.8" font-family="Arial" font-size="14.00" fill="#666666">[uuid]</text>
<polygon fill="none" stroke="black" points="46.2,-1651.8 46.2,-1682.6 397.14,-1682.6 397.14,-1651.8 46.2,-1651.8"/>
<text text-anchor="start" x="53.2" y="-1664" font-family="Arial" font-size="14.00">violation_type </text>
<text text-anchor="start" x="142.7" y="-1664" font-family="Arial" font-size="14.00" fill="#666666">[varchar(100)]</text>
<polygon fill="none" stroke="black" points="46.2,-1621 46.2,-1651.8 397.14,-1651.8 397.14,-1621 46.2,-1621"/>
<text text-anchor="start" x="53.2" y="-1633.2" font-family="Arial" font-size="14.00">framework </text>
<text text-anchor="start" x="122.43" y="-1633.2" font-family="Arial" font-size="14.00" fill="#666666">[varchar(50)]</text>
<polygon fill="none" stroke="black" points="46.2,-1590.2 46.2,-1621 397.14,-1621 397.14,-1590.2 46.2,-1590.2"/>
<text text-anchor="start" x="53.2" y="-1602.4" font-family="Arial" font-size="14.00">severity </text>
<text text-anchor="start" x="105.32" y="-1602.4" font-family="Arial" font-size="14.00" fill="#666666">[integer]</text>
<polygon fill="none" stroke="black" points="46.2,-1559.4 46.2,-1590.2 397.14,-1590.2 397.14,-1559.4 46.2,-1559.4"/>
<text text-anchor="start" x="53.2" y="-1571.6" font-family="Arial" font-size="14.00">description </text>
<text text-anchor="start" x="124.79" y="-1571.6" font-family="Arial" font-size="14.00" fill="#666666">[varchar(1000)]</text>
<polygon fill="none" stroke="black" points="46.2,-1528.6 46.2,-1559.4 397.14,-1559.4 397.14,-1528.6 46.2,-1528.6"/>
<text text-anchor="start" x="53.2" y="-1540.8" font-family="Arial" font-size="14.00">remediation </text>
<text text-anchor="start" x="130.24" y="-1540.8" font-family="Arial" font-size="14.00" fill="#666666">[varchar(1000)]</text>
<polygon fill="none" stroke="black" points="46.2,-1497.8 46.2,-1528.6 397.14,-1528.6 397.14,-1497.8 46.2,-1497.8"/>
<text text-anchor="start" x="53.2" y="-1510" font-family="Arial" font-size="14.00">risk_score </text>
<text text-anchor="start" x="120.88" y="-1510" font-family="Arial" font-size="14.00" fill="#666666">[integer]</text>
<polygon fill="none" stroke="black" points="46.2,-1467 46.2,-1497.8 397.14,-1497.8 397.14,-1467 46.2,-1467"/>
<text text-anchor="start" x="53.2" y="-1479.2" font-family="Arial" font-size="14.00">status </text>
<text text-anchor="start" x="94.44" y="-1479.2" font-family="Arial" font-size="14.00" fill="#666666">[varchar(50)]</text>
<polygon fill="none" stroke="black" points="46.2,-1436.2 46.2,-1467 397.14,-1467 397.14,-1436.2 46.2,-1436.2"/>
<text text-anchor="start" x="53.2" y="-1448.4" font-family="Arial" font-size="14.00">assigned_to </text>
<text text-anchor="start" x="132.59" y="-1448.4" font-family="Arial" font-size="14.00" fill="#666666">[varchar(100)]</text>
<polygon fill="none" stroke="black" points="46.2,-1405.4 46.2,-1436.2 397.14,-1436.2 397.14,-1405.4 46.2,-1405.4"/>
<text text-anchor="start" x="53.2" y="-1417.6" font-family="Arial" font-size="14.00">resolved_at </text>
<text text-anchor="start" x="129.47" y="-1417.6" font-family="Arial" font-size="14.00" fill="#666666">[timestamp with time zone]</text>
<polygon fill="none" stroke="black" points="46.2,-1374.6 46.2,-1405.4 397.14,-1405.4 397.14,-1374.6 46.2,-1374.6"/>
<text text-anchor="start" x="53.2" y="-1386.8" font-family="Arial" font-size="14.00">resolution </text>
<text text-anchor="start" x="117.79" y="-1386.8" font-family="Arial" font-size="14.00" fill="#666666">[varchar(1000)]</text>
<polygon fill="none" stroke="black" points="46.2,-1343.8 46.2,-1374.6 397.14,-1374.6 397.14,-1343.8 46.2,-1343.8"/>
<text text-anchor="start" x="53.2" y="-1356" font-family="Arial" font-size="14.00">resolution_by </text>
<text text-anchor="start" x="140.37" y="-1356" font-family="Arial" font-size="14.00" fill="#666666">[varchar(100)]</text>
<polygon fill="none" stroke="black" stroke-width="3" points="44.7,-1342.3 44.7,-1873.7 398.64,-1873.7 398.64,-1342.3 44.7,-1342.3"/>
</g>
<!-- public.compliance_audit_logs -->
<g id="node2" class="node">
<title>public.compliance_audit_logs</title>
<polygon fill="#efefef" stroke="none" points="44.2,-1182.8 44.2,-1218.4 399.14,-1218.4 399.14,-1182.8 44.2,-1182.8"/>
<polygon fill="none" stroke="black" points="44.2,-1182.8 44.2,-1218.4 399.14,-1218.4 399.14,-1182.8 44.2,-1182.8"/>
<text text-anchor="start" x="51.2" y="-1196.2" font-family="Arial Bold" font-size="18.00">public.compliance_audit_logs</text>
<text text-anchor="start" x="267.65" y="-1196.2" font-family="Arial" font-size="14.00">    </text>
<text text-anchor="start" x="298.77" y="-1196.2" font-family="Arial" font-size="14.00" fill="#666666">[BASE TABLE]</text>
<polygon fill="none" stroke="black" points="44.2,-1152 44.2,-1182.8 399.14,-1182.8 399.14,-1152 44.2,-1152"/>
<text text-anchor="start" x="51.2" y="-1164.2" font-family="Arial" font-size="14.00">id </text>
<text text-anchor="start" x="65.99" y="-1164.2" font-family="Arial" font-size="14.00" fill="#666666">[uuid]</text>
<polygon fill="none" stroke="black" points="44.2,-1121.2 44.2,-1152 399.14,-1152 399.14,-1121.2 44.2,-1121.2"/>
<text text-anchor="start" x="51.2" y="-1133.4" font-family="Arial" font-size="14.00">created_at </text>
<text text-anchor="start" x="121.25" y="-1133.4" font-family="Arial" font-size="14.00" fill="#666666">[timestamp with time zone]</text>
<polygon fill="none" stroke="black" points="44.2,-1090.4 44.2,-1121.2 399.14,-1121.2 399.14,-1090.4 44.2,-1090.4"/>
<text text-anchor="start" x="51.2" y="-1102.6" font-family="Arial" font-size="14.00">updated_at </text>
<text text-anchor="start" x="125.16" y="-1102.6" font-family="Arial" font-size="14.00" fill="#666666">[timestamp with time zone]</text>
<polygon fill="none" stroke="black" points="44.2,-1059.6 44.2,-1090.4 399.14,-1090.4 399.14,-1059.6 44.2,-1059.6"/>
<text text-anchor="start" x="51.2" y="-1071.8" font-family="Arial" font-size="14.00">deleted_at </text>
<text text-anchor="start" x="120.48" y="-1071.8" font-family="Arial" font-size="14.00" fill="#666666">[timestamp with time zone]</text>
<polygon fill="none" stroke="black" points="44.2,-1028.8 44.2,-1059.6 399.14,-1059.6 399.14,-1028.8 44.2,-1028.8"/>
<text text-anchor="start" x="51.2" y="-1041" font-family="Arial" font-size="14.00">user_id </text>
<text text-anchor="start" x="101.01" y="-1041" font-family="Arial" font-size="14.00" fill="#666666">[uuid]</text>
<polygon fill="none" stroke="black" points="44.2,-998 44.2,-1028.8 399.14,-1028.8 399.14,-998 44.2,-998"/>
<text text-anchor="start" x="51.2" y="-1010.2" font-family="Arial" font-size="14.00">action </text>
<text text-anchor="start" x="92.45" y="-1010.2" font-family="Arial" font-size="14.00" fill="#666666">[varchar(100)]</text>
<polygon fill="none" stroke="black" points="44.2,-967.2 44.2,-998 399.14,-998 399.14,-967.2 44.2,-967.2"/>
<text text-anchor="start" x="51.2" y="-979.4" font-family="Arial" font-size="14.00">resource </text>
<text text-anchor="start" x="109.56" y="-979.4" font-family="Arial" font-size="14.00" fill="#666666">[varchar(100)]</text>
<polygon fill="none" stroke="black" points="44.2,-936.4 44.2,-967.2 399.14,-967.2 399.14,-936.4 44.2,-936.4"/>
<text text-anchor="start" x="51.2" y="-948.6" font-family="Arial" font-size="14.00">details </text>
<text text-anchor="start" x="95.56" y="-948.6" font-family="Arial" font-size="14.00" fill="#666666">[jsonb]</text>
<polygon fill="none" stroke="black" points="44.2,-905.6 44.2,-936.4 399.14,-936.4 399.14,-905.6 44.2,-905.6"/>
<text text-anchor="start" x="51.2" y="-917.8" font-family="Arial" font-size="14.00">success </text>
<text text-anchor="start" x="105.66" y="-917.8" font-family="Arial" font-size="14.00" fill="#666666">[boolean]</text>
<polygon fill="none" stroke="black" points="44.2,-874.8 44.2,-905.6 399.14,-905.6 399.14,-874.8 44.2,-874.8"/>
<text text-anchor="start" x="51.2" y="-887" font-family="Arial" font-size="14.00">error_msg </text>
<text text-anchor="start" x="118.88" y="-887" font-family="Arial" font-size="14.00" fill="#666666">[varchar(500)]</text>
<polygon fill="none" stroke="black" points="44.2,-844 44.2,-874.8 399.14,-874.8 399.14,-844 44.2,-844"/>
<text text-anchor="start" x="51.2" y="-856.2" font-family="Arial" font-size="14.00">ip_address </text>
<text text-anchor="start" x="123.58" y="-856.2" font-family="Arial" font-size="14.00" fill="#666666">[varchar(45)]</text>
<polygon fill="none" stroke="black" points="44.2,-813.2 44.2,-844 399.14,-844 399.14,-813.2 44.2,-813.2"/>
<text text-anchor="start" x="51.2" y="-825.4" font-family="Arial" font-size="14.00">user_agent </text>
<text text-anchor="start" x="125.14" y="-825.4" font-family="Arial" font-size="14.00" fill="#666666">[varchar(500)]</text>
<polygon fill="none" stroke="black" points="44.2,-782.4 44.2,-813.2 399.14,-813.2 399.14,-782.4 44.2,-782.4"/>
<text text-anchor="start" x="51.2" y="-794.6" font-family="Arial" font-size="14.00">request_id </text>
<text text-anchor="start" x="120.47" y="-794.6" font-family="Arial" font-size="14.00" fill="#666666">[varchar(100)]</text>
<polygon fill="none" stroke="black" points="44.2,-751.6 44.2,-782.4 399.14,-782.4 399.14,-751.6 44.2,-751.6"/>
<text text-anchor="start" x="51.2" y="-763.8" font-family="Arial" font-size="14.00">session_id </text>
<text text-anchor="start" x="121.24" y="-763.8" font-family="Arial" font-size="14.00" fill="#666666">[varchar(100)]</text>
<polygon fill="none" stroke="black" points="44.2,-720.8 44.2,-751.6 399.14,-751.6 399.14,-720.8 44.2,-720.8"/>
<text text-anchor="start" x="51.2" y="-733" font-family="Arial" font-size="14.00">tenant_id </text>
<text text-anchor="start" x="112.7" y="-733" font-family="Arial" font-size="14.00" fill="#666666">[varchar(100)]</text>
<polygon fill="none" stroke="black" points="44.2,-690 44.2,-720.8 399.14,-720.8 399.14,-690 44.2,-690"/>
<text text-anchor="start" x="51.2" y="-702.2" font-family="Arial" font-size="14.00">compliance_frameworks </text>
<text text-anchor="start" x="206.03" y="-702.2" font-family="Arial" font-size="14.00" fill="#666666">[varchar(200)]</text>
<polygon fill="none" stroke="black" points="44.2,-659.2 44.2,-690 399.14,-690 399.14,-659.2 44.2,-659.2"/>
<text text-anchor="start" x="51.2" y="-671.4" font-family="Arial" font-size="14.00">data_classification </text>
<text text-anchor="start" x="169.49" y="-671.4" font-family="Arial" font-size="14.00" fill="#666666">[varchar(50)]</text>
<polygon fill="none" stroke="black" points="44.2,-628.4 44.2,-659.2 399.14,-659.2 399.14,-628.4 44.2,-628.4"/>
<text text-anchor="start" x="51.2" y="-640.6" font-family="Arial" font-size="14.00">sensitivity_level </text>
<text text-anchor="start" x="152.35" y="-640.6" font-family="Arial" font-size="14.00" fill="#666666">[integer]</text>
<polygon fill="none" stroke="black" points="44.2,-597.6 44.2,-628.4 399.14,-628.4 399.14,-597.6 44.2,-597.6"/>
<text text-anchor="start" x="51.2" y="-609.8" font-family="Arial" font-size="14.00">legal_basis </text>
<text text-anchor="start" x="125.14" y="-609.8" font-family="Arial" font-size="14.00" fill="#666666">[varchar(50)]</text>
<polygon fill="none" stroke="black" points="44.2,-566.8 44.2,-597.6 399.14,-597.6 399.14,-566.8 44.2,-566.8"/>
<text text-anchor="start" x="51.2" y="-579" font-family="Arial" font-size="14.00">data_subjects </text>
<text text-anchor="start" x="141.48" y="-579" font-family="Arial" font-size="14.00" fill="#666666">[jsonb]</text>
<polygon fill="none" stroke="black" points="44.2,-536 44.2,-566.8 399.14,-566.8 399.14,-536 44.2,-536"/>
<text text-anchor="start" x="51.2" y="-548.2" font-family="Arial" font-size="14.00">data_categories </text>
<text text-anchor="start" x="154.72" y="-548.2" font-family="Arial" font-size="14.00" fill="#666666">[jsonb]</text>
<polygon fill="none" stroke="black" points="44.2,-505.2 44.2,-536 399.14,-536 399.14,-505.2 44.2,-505.2"/>
<text text-anchor="start" x="51.2" y="-517.4" font-family="Arial" font-size="14.00">processing_purpose </text>
<text text-anchor="start" x="181.17" y="-517.4" font-family="Arial" font-size="14.00" fill="#666666">[varchar(500)]</text>
<polygon fill="none" stroke="black" points="44.2,-474.4 44.2,-505.2 399.14,-505.2 399.14,-474.4 44.2,-474.4"/>
<text text-anchor="start" x="51.2" y="-486.6" font-family="Arial" font-size="14.00">geolocation_country </text>
<text text-anchor="start" x="180.4" y="-486.6" font-family="Arial" font-size="14.00" fill="#666666">[varchar(10)]</text>
<polygon fill="none" stroke="black" points="44.2,-443.6 44.2,-474.4 399.14,-474.4 399.14,-443.6 44.2,-443.6"/>
<text text-anchor="start" x="51.2" y="-455.8" font-family="Arial" font-size="14.00">risk_score </text>
<text text-anchor="start" x="118.88" y="-455.8" font-family="Arial" font-size="14.00" fill="#666666">[integer]</text>
<polygon fill="none" stroke="black" points="44.2,-412.8 44.2,-443.6 399.14,-443.6 399.14,-412.8 44.2,-412.8"/>
<text text-anchor="start" x="51.2" y="-425" font-family="Arial" font-size="14.00">controls_applied </text>
<text text-anchor="start" x="157.05" y="-425" font-family="Arial" font-size="14.00" fill="#666666">[jsonb]</text>
<polygon fill="none" stroke="black" points="44.2,-382 44.2,-412.8 399.14,-412.8 399.14,-382 44.2,-382"/>
<text text-anchor="start" x="51.2" y="-394.2" font-family="Arial" font-size="14.00">approval_required </text>
<text text-anchor="start" x="167.94" y="-394.2" font-family="Arial" font-size="14.00" fill="#666666">[boolean]</text>
<polygon fill="none" stroke="black" points="44.2,-351.2 44.2,-382 399.14,-382 399.14,-351.2 44.2,-351.2"/>
<text text-anchor="start" x="51.2" y="-363.4" font-family="Arial" font-size="14.00">approval_status </text>
<text text-anchor="start" x="153.93" y="-363.4" font-family="Arial" font-size="14.00" fill="#666666">[varchar(50)]</text>
<polygon fill="none" stroke="black" points="44.2,-320.4 44.2,-351.2 399.14,-351.2 399.14,-320.4 44.2,-320.4"/>
<text text-anchor="start" x="51.2" y="-332.6" font-family="Arial" font-size="14.00">review_status </text>
<text text-anchor="start" x="140.68" y="-332.6" font-family="Arial" font-size="14.00" fill="#666666">[varchar(50)]</text>
<polygon fill="none" stroke="black" points="44.2,-289.6 44.2,-320.4 399.14,-320.4 399.14,-289.6 44.2,-289.6"/>
<text text-anchor="start" x="51.2" y="-301.8" font-family="Arial" font-size="14.00">retention_category </text>
<text text-anchor="start" x="171.05" y="-301.8" font-family="Arial" font-size="14.00" fill="#666666">[varchar(50)]</text>
<polygon fill="none" stroke="black" points="44.2,-258.8 44.2,-289.6 399.14,-289.6 399.14,-258.8 44.2,-258.8"/>
<text text-anchor="start" x="51.2" y="-271" font-family="Arial" font-size="14.00">business_justification </text>
<text text-anchor="start" x="187.39" y="-271" font-family="Arial" font-size="14.00" fill="#666666">[varchar(1000)]</text>
<polygon fill="none" stroke="black" points="44.2,-228 44.2,-258.8 399.14,-258.8 399.14,-228 44.2,-228"/>
<text text-anchor="start" x="51.2" y="-240.2" font-family="Arial" font-size="14.00">retain_until </text>
<text text-anchor="start" x="123.58" y="-240.2" font-family="Arial" font-size="14.00" fill="#666666">[timestamp with time zone]</text>
<polygon fill="none" stroke="black" points="44.2,-197.2 44.2,-228 399.14,-228 399.14,-197.2 44.2,-197.2"/>
<text text-anchor="start" x="51.2" y="-209.4" font-family="Arial" font-size="14.00">archive_date </text>
<text text-anchor="start" x="135.26" y="-209.4" font-family="Arial" font-size="14.00" fill="#666666">[timestamp with time zone]</text>
<polygon fill="none" stroke="black" points="44.2,-166.4 44.2,-197.2 399.14,-197.2 399.14,-166.4 44.2,-166.4"/>
<text text-anchor="start" x="51.2" y="-178.6" font-family="Arial" font-size="14.00">purge_date </text>
<text text-anchor="start" x="125.93" y="-178.6" font-family="Arial" font-size="14.00" fill="#666666">[timestamp with time zone]</text>
<polygon fill="none" stroke="black" points="44.2,-135.6 44.2,-166.4 399.14,-166.4 399.14,-135.6 44.2,-135.6"/>
<text text-anchor="start" x="51.2" y="-147.8" font-family="Arial" font-size="14.00">archived </text>
<text text-anchor="start" x="108.01" y="-147.8" font-family="Arial" font-size="14.00" fill="#666666">[boolean]</text>
<polygon fill="none" stroke="black" points="44.2,-104.8 44.2,-135.6 399.14,-135.6 399.14,-104.8 44.2,-104.8"/>
<text text-anchor="start" x="51.2" y="-117" font-family="Arial" font-size="14.00">archived_at </text>
<text text-anchor="start" x="127.47" y="-117" font-family="Arial" font-size="14.00" fill="#666666">[timestamp with time zone]</text>
<polygon fill="none" stroke="black" points="44.2,-74 44.2,-104.8 399.14,-104.8 399.14,-74 44.2,-74"/>
<text text-anchor="start" x="51.2" y="-86.2" font-family="Arial" font-size="14.00">business_context </text>
<text text-anchor="start" x="163.27" y="-86.2" font-family="Arial" font-size="14.00" fill="#666666">[jsonb]</text>
<polygon fill="none" stroke="black" points="44.2,-43.2 44.2,-74 399.14,-74 399.14,-43.2 44.2,-43.2"/>
<text text-anchor="start" x="51.2" y="-55.4" font-family="Arial" font-size="14.00">technical_context </text>
<text text-anchor="start" x="163.27" y="-55.4" font-family="Arial" font-size="14.00" fill="#666666">[jsonb]</text>
</g>
<!-- public.compliance_violations&#45;&gt;public.compliance_audit_logs -->
<g id="edge1" class="edge">
<title>public.compliance_violations:audit_log_id&#45;&gt;public.compliance_audit_logs:id</title>
<path fill="none" stroke="black" d="M407.3,-1693.41C457.13,-1641.55 455.87,-1167.4 400.14,-1167.4"/>
<polygon fill="black" stroke="black" points="407.38,-1693.37 396.42,-1693.83 402.61,-1695.76 398.74,-1697.7 398.74,-1697.7 398.74,-1697.7 402.61,-1695.76 400.45,-1701.87 407.38,-1693.37"/>
<text text-anchor="start" x="405.14" y="-1708" font-family="Arial" font-size="10.00">FOREIGN KEY (audit_log_id) REFERENCES compliance_audit_logs(id) ON DELETE CASCADE</text>
</g>
</g>
</svg>
