<?xml version="1.0" encoding="UTF-8" standalone="no"?>
<!DOCTYPE svg PUBLIC "-//W3C//DTD SVG 1.1//EN"
 "http://www.w3.org/Graphics/SVG/1.1/DTD/svg11.dtd">
<!-- Generated by graphviz version 12.1.2 (20240928.0832)
 -->
<!-- Title: public.roles Pages: 1 -->
<svg width="808pt" height="571pt"
 viewBox="0.00 0.00 808.11 571.20" xmlns="http://www.w3.org/2000/svg" xmlns:xlink="http://www.w3.org/1999/xlink">
<g id="graph0" class="graph" transform="scale(1 1) rotate(0) translate(4 567.2)">
<title>public.roles</title>
<polygon fill="white" stroke="none" points="-4,4 -4,-567.2 804.11,-567.2 804.11,4 -4,4"/>
<!-- public.roles -->
<g id="node1" class="node">
<title>public.roles</title>
<polygon fill="#efefef" stroke="none" points="278.58,-261.8 278.58,-297.4 532.27,-297.4 532.27,-261.8 278.58,-261.8"/>
<polygon fill="none" stroke="black" points="278.58,-261.8 278.58,-297.4 532.27,-297.4 532.27,-261.8 278.58,-261.8"/>
<text text-anchor="start" x="300.94" y="-275.2" font-family="Arial Bold" font-size="18.00">public.roles</text>
<text text-anchor="start" x="385.42" y="-275.2" font-family="Arial" font-size="14.00">    </text>
<text text-anchor="start" x="416.54" y="-275.2" font-family="Arial" font-size="14.00" fill="#666666">[BASE TABLE]</text>
<polygon fill="none" stroke="black" points="278.58,-231 278.58,-261.8 532.27,-261.8 532.27,-231 278.58,-231"/>
<text text-anchor="start" x="285.58" y="-243.2" font-family="Arial" font-size="14.00">id </text>
<text text-anchor="start" x="300.37" y="-243.2" font-family="Arial" font-size="14.00" fill="#666666">[bigint]</text>
<polygon fill="none" stroke="black" points="278.58,-200.2 278.58,-231 532.27,-231 532.27,-200.2 278.58,-200.2"/>
<text text-anchor="start" x="285.58" y="-212.4" font-family="Arial" font-size="14.00">name </text>
<text text-anchor="start" x="324.49" y="-212.4" font-family="Arial" font-size="14.00" fill="#666666">[varchar(50)]</text>
<polygon fill="none" stroke="black" points="278.58,-169.4 278.58,-200.2 532.27,-200.2 532.27,-169.4 278.58,-169.4"/>
<text text-anchor="start" x="285.58" y="-181.6" font-family="Arial" font-size="14.00">description </text>
<text text-anchor="start" x="357.18" y="-181.6" font-family="Arial" font-size="14.00" fill="#666666">[varchar(200)]</text>
<polygon fill="none" stroke="black" points="278.58,-138.6 278.58,-169.4 532.27,-169.4 532.27,-138.6 278.58,-138.6"/>
<text text-anchor="start" x="285.58" y="-150.8" font-family="Arial" font-size="14.00">is_active </text>
<text text-anchor="start" x="343.94" y="-150.8" font-family="Arial" font-size="14.00" fill="#666666">[boolean]</text>
<polygon fill="none" stroke="black" points="278.58,-107.8 278.58,-138.6 532.27,-138.6 532.27,-107.8 278.58,-107.8"/>
<text text-anchor="start" x="285.58" y="-120" font-family="Arial" font-size="14.00">created_at </text>
<text text-anchor="start" x="355.63" y="-120" font-family="Arial" font-size="14.00" fill="#666666">[timestamp with time zone]</text>
<polygon fill="none" stroke="black" points="278.58,-77 278.58,-107.8 532.27,-107.8 532.27,-77 278.58,-77"/>
<text text-anchor="start" x="285.58" y="-89.2" font-family="Arial" font-size="14.00">updated_at </text>
<text text-anchor="start" x="359.54" y="-89.2" font-family="Arial" font-size="14.00" fill="#666666">[timestamp with time zone]</text>
<polygon fill="none" stroke="black" points="278.58,-46.2 278.58,-77 532.27,-77 532.27,-46.2 278.58,-46.2"/>
<text text-anchor="start" x="285.58" y="-58.4" font-family="Arial" font-size="14.00">deleted_at </text>
<text text-anchor="start" x="354.87" y="-58.4" font-family="Arial" font-size="14.00" fill="#666666">[timestamp with time zone]</text>
<polygon fill="none" stroke="black" stroke-width="3" points="277.08,-44.7 277.08,-298.9 533.77,-298.9 533.77,-44.7 277.08,-44.7"/>
</g>
<!-- public.user_roles -->
<g id="node2" class="node">
<title>public.user_roles</title>
<polygon fill="#efefef" stroke="none" points="79.45,-484.4 79.45,-520 341.4,-520 341.4,-484.4 79.45,-484.4"/>
<polygon fill="none" stroke="black" points="79.45,-484.4 79.45,-520 341.4,-520 341.4,-484.4 79.45,-484.4"/>
<text text-anchor="start" x="86.45" y="-497.8" font-family="Arial Bold" font-size="18.00">public.user_roles</text>
<text text-anchor="start" x="209.91" y="-497.8" font-family="Arial" font-size="14.00">    </text>
<text text-anchor="start" x="241.03" y="-497.8" font-family="Arial" font-size="14.00" fill="#666666">[BASE TABLE]</text>
<polygon fill="none" stroke="black" points="79.45,-453.6 79.45,-484.4 341.4,-484.4 341.4,-453.6 79.45,-453.6"/>
<text text-anchor="start" x="86.45" y="-465.8" font-family="Arial" font-size="14.00">user_id </text>
<text text-anchor="start" x="136.25" y="-465.8" font-family="Arial" font-size="14.00" fill="#666666">[uuid]</text>
<polygon fill="none" stroke="black" points="79.45,-422.8 79.45,-453.6 341.4,-453.6 341.4,-422.8 79.45,-422.8"/>
<text text-anchor="start" x="86.45" y="-435" font-family="Arial" font-size="14.00">role_id </text>
<text text-anchor="start" x="132.36" y="-435" font-family="Arial" font-size="14.00" fill="#666666">[bigint]</text>
</g>
<!-- public.user_roles&#45;&gt;public.roles -->
<g id="edge1" class="edge">
<title>public.user_roles:role_id&#45;&gt;public.roles:id</title>
<path fill="none" stroke="black" d="M352.18,-435.5C363.94,-426.7 352.48,-398.35 341.4,-379.6 325.03,-351.9 294.86,-371.36 278.58,-343.6 256.73,-306.33 234.38,-246.4 277.58,-246.4"/>
<polygon fill="black" stroke="black" points="352.37,-435.45 341.53,-433.77 347.22,-436.87 343.05,-438.02 343.05,-438.02 343.05,-438.02 347.22,-436.87 343.92,-442.45 352.37,-435.45"/>
<text text-anchor="start" x="7" y="-448.2" font-family="Arial" font-size="10.00">FOREIGN KEY (role_id) REFERENCES roles(id) ON DELETE CASCADE</text>
</g>
<!-- public.role_permissions -->
<g id="node3" class="node">
<title>public.role_permissions</title>
<polygon fill="#efefef" stroke="none" points="445.94,-484.4 445.94,-520 756.91,-520 756.91,-484.4 445.94,-484.4"/>
<polygon fill="none" stroke="black" points="445.94,-484.4 445.94,-520 756.91,-520 756.91,-484.4 445.94,-484.4"/>
<text text-anchor="start" x="452.94" y="-497.8" font-family="Arial Bold" font-size="18.00">public.role_permissions</text>
<text text-anchor="start" x="625.42" y="-497.8" font-family="Arial" font-size="14.00">    </text>
<text text-anchor="start" x="656.54" y="-497.8" font-family="Arial" font-size="14.00" fill="#666666">[BASE TABLE]</text>
<polygon fill="none" stroke="black" points="445.94,-453.6 445.94,-484.4 756.91,-484.4 756.91,-453.6 445.94,-453.6"/>
<text text-anchor="start" x="452.94" y="-465.8" font-family="Arial" font-size="14.00">role_id </text>
<text text-anchor="start" x="498.86" y="-465.8" font-family="Arial" font-size="14.00" fill="#666666">[bigint]</text>
<polygon fill="none" stroke="black" points="445.94,-422.8 445.94,-453.6 756.91,-453.6 756.91,-422.8 445.94,-422.8"/>
<text text-anchor="start" x="452.94" y="-435" font-family="Arial" font-size="14.00">permission_id </text>
<text text-anchor="start" x="543.2" y="-435" font-family="Arial" font-size="14.00" fill="#666666">[bigint]</text>
</g>
<!-- public.role_permissions&#45;&gt;public.roles -->
<g id="edge2" class="edge">
<title>public.role_permissions:role_id&#45;&gt;public.roles:id</title>
<path fill="none" stroke="black" d="M434.92,-467.46C408.86,-458.2 425.89,-409.32 445.94,-379.6 469.19,-345.14 509.03,-378.07 532.27,-343.6 556.41,-307.77 576.47,-246.4 533.27,-246.4"/>
<polygon fill="black" stroke="black" points="434.73,-467.43 443.93,-473.4 440,-468.24 444.28,-468.9 444.28,-468.9 444.28,-468.9 440,-468.24 445.29,-464.5 434.73,-467.43"/>
<text text-anchor="start" x="451.94" y="-479" font-family="Arial" font-size="10.00">FOREIGN KEY (role_id) REFERENCES roles(id) ON DELETE CASCADE</text>
</g>
</g>
</svg>
